<?xml version="1.0" encoding="utf-8"?>
<!-- Generator: Adobe Illustrator 24.1.1, SVG Export Plug-In . SVG Version: 6.00 Build 0)  -->
<svg version="1.1" id="Layer_1" xmlns="http://www.w3.org/2000/svg" xmlns:xlink="http://www.w3.org/1999/xlink" x="0px" y="0px"
	 viewBox="0 0 792 792" style="enable-background:new 0 0 792 792;" xml:space="preserve">
<style type="text/css">
	.st0{fill-rule:evenodd;clip-rule:evenodd;fill:#0069AC;stroke:#000000;stroke-width:0.5669;stroke-miterlimit:22.9256;}
	.st1{fill-rule:evenodd;clip-rule:evenodd;fill:#FEFEFE;stroke:#000000;stroke-width:0.5669;stroke-miterlimit:22.9256;}
	.st2{fill:none;stroke:#FFB700;stroke-width:11.3386;stroke-miterlimit:22.9256;}
	.st3{fill-rule:evenodd;clip-rule:evenodd;fill:#FFB700;stroke:#000000;stroke-width:0.2835;stroke-miterlimit:22.9256;}
	.st4{fill-rule:evenodd;clip-rule:evenodd;fill:#0069AC;stroke:#000000;stroke-width:0.2835;stroke-miterlimit:22.9256;}
	.st5{fill-rule:evenodd;clip-rule:evenodd;stroke:#000000;stroke-width:0.2835;stroke-miterlimit:22.9256;}
	.st6{fill-rule:evenodd;clip-rule:evenodd;fill:#FFFFFF;stroke:#000000;stroke-width:0.2835;stroke-miterlimit:22.9256;}
	.st7{fill-rule:evenodd;clip-rule:evenodd;fill:#DF4B24;stroke:#000000;stroke-width:0.2835;stroke-miterlimit:22.9256;}
	.st8{fill-rule:evenodd;clip-rule:evenodd;fill:#FFB700;stroke:#000000;stroke-width:0.5669;stroke-miterlimit:22.9256;}
	.st9{fill:none;stroke:#000000;stroke-width:0.5669;stroke-miterlimit:22.9256;}
	.st10{fill-rule:evenodd;clip-rule:evenodd;fill:#FFB700;stroke:#000000;stroke-width:1.4173;stroke-miterlimit:22.9256;}
	.st11{fill-rule:evenodd;clip-rule:evenodd;fill:#DA251D;stroke:#000000;stroke-width:0.5669;stroke-miterlimit:22.9256;}
	.st12{fill-rule:evenodd;clip-rule:evenodd;fill:#FFFFFF;stroke:#000000;stroke-width:0.5669;stroke-miterlimit:22.9256;}
	.st13{fill-rule:evenodd;clip-rule:evenodd;stroke:#000000;stroke-width:0.5669;stroke-miterlimit:22.9256;}
	.st14{fill:none;stroke:#000000;stroke-width:2.8347;stroke-miterlimit:22.9256;}
</style>
<g>
	<path class="st0" d="M396.8,99.8c38.1,0,68.9,30.8,68.9,68.9c0,5.3-0.6,10.5-1.8,15.5c76.2,27.9,133.4,101.1,133.4,187.1
		c0,57.1-23.8,109.6-62.4,145.9c-3.2,3-5.7,9.2-0.9,14.2c22.5,13,36.7,29.1,36.7,52.7c0,12.3-2,24.7-8.9,34.2l6.5,0l0,7.7
		c3.1,0.9,6.7,5.2,8.4,9.5c0.9,2.8,3.6,4,8.1,4.7l0.1,26.9H208.6l-0.1-26.7c3.8-1.2,6.3-1.3,7.3-3.2c1.8-5,5.1-10,9.4-11.2l0.2-7.8
		l6.5,0c-7.4-14-9.2-14.1-9.2-35.5c0-20.7,18.1-41.4,31.3-47.9c14.5-7.1,6.2-15.6,4.1-17.8c-38.5-36.3-61.7-88.5-61.7-145.6
		c0-86.8,55.6-160.7,133.1-187.9c-1-4.7-1.6-9.6-1.6-14.6C327.9,130.6,358.7,99.8,396.8,99.8L396.8,99.8z"/>
	<path class="st1" d="M396.7,111.5c49.6,2.7,62.8,48.8,50.7,77.5c8.3,2.6,8.5,2.5,13.6,3.8c72.9,26.7,127.6,96.7,127.6,178.9
		c0,54.7-22.8,104.8-59.6,139.5c-10.9,4-8.8,21-4.2,25.7c21.5,12.4,28.9,20.7,35.7,42.2c3,18.3-4.2,37.9-28.8,49.2l26.5-0.4l0.2,4.3
		c0.4,1.3,8,1.5,9.1,7.2c0.9,4.8,5.1,5.8,7.2,8.3l-0.1,9H218.5l0-9.2c5.7-2,6.5-6.7,7.4-8.5c1.8-4.8,5-5.2,9.1-6.4l0-4.6l26.5-0.2
		c-28.9-12.6-32.1-32.8-27.8-51.2c0.6-18.9,25.6-33.8,34.5-39.2c12.3-15.9-2.3-24.3-4.3-26.5c-36.8-34.7-59-84.7-59-139.3
		c0-83.1,54.2-152.5,128.4-178.5c4.5-1.9,9.4-2.9,12.8-4.6C333.9,164.4,343.9,115,396.7,111.5L396.7,111.5z"/>
	<path class="st2" d="M396.6,188.8c101,0,182.9,81.9,182.9,182.9c0,101-81.9,182.9-182.9,182.9c-101,0-182.9-81.9-182.9-182.9
		C213.7,270.7,295.6,188.8,396.6,188.8L396.6,188.8z"/>
	<path class="st3" d="M396.6,218.4c84.7,0,153.4,68.7,153.4,153.4s-68.7,153.4-153.4,153.4c-84.7,0-153.4-68.7-153.4-153.4
		S311.8,218.4,396.6,218.4L396.6,218.4z"/>
	<path class="st4" d="M396.5,227c80,0,144.8,64.8,144.8,144.8s-64.8,144.8-144.8,144.8s-144.8-64.8-144.8-144.8S316.5,227,396.5,227
		L396.5,227z"/>
	<path class="st3" d="M397.1,234.8c75.3,0,136.4,61.1,136.4,136.4c0,75.3-61.1,136.4-136.4,136.4s-136.4-61.1-136.4-136.4
		C260.7,295.8,321.8,234.8,397.1,234.8L397.1,234.8z"/>
	<path class="st4" d="M396.7,240.2c72.6,0,131.4,58.8,131.4,131.4c0,72.6-58.8,131.4-131.4,131.4c-72.6,0-131.4-58.8-131.4-131.4
		C265.2,299.1,324.1,240.2,396.7,240.2L396.7,240.2z"/>
	<path class="st5" d="M396.4,249.9c67.4,0,122,54.6,122,122s-54.6,122-122,122s-122-54.6-122-122S329,249.9,396.4,249.9L396.4,249.9
		z"/>
	<path class="st6" d="M396.9,277.1c52.1,0,94.3,42.2,94.3,94.3s-42.2,94.3-94.3,94.3c-52.1,0-94.3-42.2-94.3-94.3
		S344.8,277.1,396.9,277.1L396.9,277.1z"/>
	<path class="st4" d="M396.6,282c49.6,0,89.7,40.2,89.7,89.7c0,49.6-40.2,89.7-89.7,89.7c-49.6,0-89.7-40.2-89.7-89.7
		C306.8,322.2,347,282,396.6,282L396.6,282z"/>
	<path class="st6" d="M396.8,288.4c45.9,0,83.1,37.2,83.1,83.1s-37.2,83.1-83.1,83.1c-45.9,0-83.1-37.2-83.1-83.1
		S350.9,288.4,396.8,288.4L396.8,288.4z"/>
	<path class="st7" d="M396.4,293.6c43.3,0,78.4,35.1,78.4,78.4c0,43.3-35.1,78.4-78.4,78.4S318,415.2,318,371.9
		C318,328.6,353.1,293.6,396.4,293.6L396.4,293.6z"/>
	<path class="st8" d="M396.5,115.8c28.3,0,51.3,23,51.3,51.3c0,28.3-23,51.3-51.3,51.3c-28.3,0-51.3-23-51.3-51.3
		C345.2,138.7,368.1,115.8,396.5,115.8L396.5,115.8z"/>
	<path class="st9" d="M396.5,119.9c26,0,47.1,21.1,47.1,47.1c0,26-21.1,47.1-47.1,47.1c-26,0-47.1-21.1-47.1-47.1
		C349.3,141,370.4,119.9,396.5,119.9L396.5,119.9z"/>
	<path class="st0" d="M396.5,126.1c22.7,0,41,18.4,41,41c0,22.7-18.4,41-41,41c-22.7,0-41-18.4-41-41
		C355.5,144.4,373.8,126.1,396.5,126.1L396.5,126.1z M396.5,133.9c18.3,0,33.1,14.8,33.1,33.1c0,18.3-14.8,33.1-33.1,33.1
		c-18.3,0-33.1-14.8-33.1-33.1C363.3,148.8,378.2,133.9,396.5,133.9L396.5,133.9z"/>
	<path class="st9" d="M396.5,133.9c18.3,0,33.1,14.8,33.1,33.1c0,18.3-14.8,33.1-33.1,33.1c-18.3,0-33.1-14.8-33.1-33.1
		C363.3,148.8,378.2,133.9,396.5,133.9L396.5,133.9z"/>
	<path class="st0" d="M396.6,147.1c0.8,0,1.6,0,2.4,0.1c1.8-4.2,7.7-18.1,8.3-20.1c0.7-3,8.8-3.6,7.7,2.6c-1.9,5.9-6.4,16.6-8,20.4
		c1.9,1.2,3.6,2.7,4.9,4.5c4.2-1.7,18.2-7.4,20.1-8.4c2.6-1.6,8.8,3.6,3.6,7.3c-5.5,2.8-16.3,7.3-20,8.8c0.3,1.4,0.5,2.9,0.5,4.4
		c0,0.8,0,1.5-0.1,2.3c4.2,1.7,18.1,7.6,20.2,8.2c3,0.7,3.7,8.7-2.6,7.7c-5.9-1.8-16.7-6.3-20.4-7.9c-1.2,1.9-2.7,3.6-4.4,5
		c1.7,4.2,7.5,18.2,8.5,20.1c1.6,2.6-3.6,8.8-7.3,3.6c-2.9-5.4-7.3-16.3-8.9-20c-1.4,0.3-2.9,0.5-4.4,0.5c-0.7,0-1.5,0-2.2-0.1
		c-1.7,4.2-7.5,18.2-8.2,20.2c-0.7,3-8.7,3.7-7.7-2.5c1.8-5.9,6.3-16.7,7.8-20.4c-1.9-1.2-3.6-2.7-5-4.4c-4.2,1.7-18.1,7.6-20,8.5
		c-2.6,1.6-8.8-3.5-3.7-7.2c5.4-2.9,16.2-7.4,20-9c-0.3-1.4-0.5-3-0.5-4.5c0-0.7,0-1.4,0.1-2.1c-4.2-1.7-18.2-7.4-20.2-8.1
		c-3-0.7-3.8-8.7,2.5-7.7c5.9,1.8,16.7,6.2,20.5,7.7c1.2-1.9,2.7-3.6,4.4-5c-1.8-4.2-7.6-18.1-8.6-20c-1.6-2.6,3.5-8.8,7.2-3.7
		c2.9,5.4,7.5,16.2,9,19.9C393.5,147.3,395.1,147.1,396.6,147.1L396.6,147.1z"/>
	<path class="st8" d="M396.5,156.1c6.1,0,11,4.9,11,11c0,6.1-4.9,11-11,11s-11-4.9-11-11C385.5,161,390.4,156.1,396.5,156.1
		L396.5,156.1z"/>
	<path class="st10" d="M396.8,159.6c4,0,7.3,3.3,7.3,7.3c0,4-3.3,7.3-7.3,7.3c-4,0-7.3-3.3-7.3-7.3
		C389.5,162.9,392.8,159.6,396.8,159.6L396.8,159.6z"/>
	<path class="st0" d="M280.8,541.6c24.2,0,43.8,19.6,43.8,43.8c0,24.2-19.6,43.8-43.8,43.8c-24.2,0-43.8-19.6-43.8-43.8
		C237,561.2,256.6,541.6,280.8,541.6L280.8,541.6z"/>
	<path class="st11" d="M280.8,545.5c22.1,0,40,17.9,40,40c0,22.1-17.9,40-40,40c-22.1,0-40-17.9-40-40
		C240.8,563.4,258.7,545.5,280.8,545.5L280.8,545.5z"/>
	<path class="st8" d="M280.8,550.5c19.3,0,34.9,15.6,34.9,34.9c0,19.3-15.6,34.9-34.9,34.9c-19.3,0-34.9-15.6-34.9-34.9
		C245.9,566.1,261.5,550.5,280.8,550.5L280.8,550.5z"/>
	<path class="st9" d="M280.8,558.7c14.8,0,26.8,12,26.8,26.8c0,14.8-12,26.8-26.8,26.8c-14.8,0-26.8-12-26.8-26.8
		C254,570.7,266,558.7,280.8,558.7L280.8,558.7z M280.8,561.6c13.2,0,23.8,10.7,23.8,23.8c0,13.2-10.7,23.8-23.8,23.8
		c-13.2,0-23.8-10.7-23.8-23.8C257,572.3,267.7,561.6,280.8,561.6L280.8,561.6z"/>
	<path class="st0" d="M513.3,542c24.1,0,43.7,19.6,43.7,43.7c0,24.1-19.6,43.7-43.7,43.7c-24.1,0-43.7-19.6-43.7-43.7
		C469.6,561.5,489.1,542,513.3,542L513.3,542z"/>
	<path class="st11" d="M513.3,545.5c22.2,0,40.1,18,40.1,40.1c0,22.2-18,40.1-40.1,40.1c-22.2,0-40.1-18-40.1-40.1
		C473.1,563.5,491.1,545.5,513.3,545.5L513.3,545.5z"/>
	<path class="st8" d="M513.3,550.4c19.5,0,35.3,15.8,35.3,35.3s-15.8,35.3-35.3,35.3c-19.5,0-35.3-15.8-35.3-35.3
		S493.8,550.4,513.3,550.4L513.3,550.4z"/>
	<path class="st9" d="M285.7,562.1c0,0-0.9,4.5-2.2,6c-0.2,1.8,2.2,6.4,0,11.8l0.9,10.8l-3.2,0.4c-0.2,0.9,0.1,1.5,0.3,2.5
		c1.1,0.8,1.4,1.6,1,3.5c0.3,1.2,0.3,2.1,0.2,3.4c-1.4-0.1-4.2,0.4-7.2-1.4c1.6,3.1,8.6-1.1,10,9.6 M281.3,590.8
		c-0.5,0.4-1-0.4-1.6-0.3c-3,2.4-5.4-1.6-1.7-4 M281.5,593.7c-1.2-0.1-5.4,1.7-8,3.6l9-0.1 M278.1,580.1c0,0-8.8,0.4-8.9,0
		c-0.1-0.4,1.7-1.9,4.7-2.2c3-0.3,4.4-0.2,4.4,0.2C278.3,578.4,278.1,580.1,278.1,580.1L278.1,580.1z M266.5,579.5
		c0,0,9.8-4.5,12.4-2.9 M267.2,574.8c0,0,6.1-7,14.6-0.8"/>
	<path class="st8" d="M499.1,562.2c-0.5,0-8.2-8.9-0.3-14.3c1.2-1.2,4.5-0.8,4.7,0.9c-0.7,1.1-3.3,2.2-0.2,3.1
		c3.9,0.9,5.5,5.1,4.9,7.3C507.7,559.4,501.8,560.5,499.1,562.2L499.1,562.2z"/>
	<path class="st8" d="M508.9,558.9c-0.4-0.1-5.1-11,4.1-13.8c1.5-0.7,4.5,0.6,4.2,2.3c-1,0.9-3.8,1.1-1.1,3c3.5,2,3.7,6.5,2.5,8.5
		C517.8,558.8,511.9,558.1,508.9,558.9L508.9,558.9z"/>
	<path class="st8" d="M518.5,559.1c-0.4-0.3-1.1-12,8.4-11.6c1.7-0.2,4,2.1,3.2,3.6c-1.2,0.5-3.9-0.2-2,2.4c2.6,3.1,1.3,7.4-0.5,8.8
		C527,562,521.7,559.3,518.5,559.1L518.5,559.1z"/>
	<path class="st8" d="M527.6,563.2c-0.3-0.4,2.9-11.7,11.8-8.1c1.6,0.4,3.1,3.3,1.8,4.5c-1.3,0-3.6-1.5-2.7,1.6
		c1.4,3.8-1.2,7.4-3.4,8.1C534.6,568.8,530.5,564.4,527.6,563.2L527.6,563.2z"/>
	<path class="st8" d="M533.9,568.9c-0.1-0.4,6.5-10.2,13.8-4c1.4,0.9,1.9,4.1,0.3,4.8c-1.3-0.4-2.9-2.6-3.1,0.7
		c0.2,4-3.5,6.6-5.8,6.7C538.8,576.4,536.2,571,533.9,568.9L533.9,568.9z"/>
	<path class="st8" d="M538.2,576.3c0-0.5,9.2-7.8,14.3,0.3c1.1,1.3,0.6,4.5-1.1,4.7c-1.1-0.7-2-3.3-3.1-0.3c-1,3.9-5.3,5.3-7.5,4.6
		C540.7,584.9,539.8,579,538.2,576.3L538.2,576.3z"/>
	<path class="st8" d="M540.4,584.8c0.2-0.4,11.2-4.5,13.5,4.8c0.7,1.5-0.8,4.4-2.6,4.1c-0.8-1.1-0.9-3.8-2.9-1.3
		c-2.2,3.4-6.7,3.3-8.6,2C540,593.7,541,587.8,540.4,584.8L540.4,584.8z"/>
	<path class="st8" d="M538.7,593.1c0.3-0.4,12.1-0.7,11.3,8.9c0.1,1.7-2.2,4-3.7,3.1c-0.4-1.3,0.4-3.9-2.3-2.1
		c-3.2,2.5-7.4,1-8.8-0.8C535.5,601.5,538.4,596.2,538.7,593.1L538.7,593.1z"/>
	<path class="st8" d="M534.6,601.6c0.4-0.2,11.6,3.5,7.6,12.2c-0.4,1.6-3.4,3-4.5,1.6c0-1.3,1.7-3.5-1.5-2.8c-3.8,1.3-7.3-1.6-8-3.8
		C528.7,608.4,533.2,604.5,534.6,601.6L534.6,601.6z"/>
	<path class="st8" d="M528.5,607.7c0.4-0.1,9.7,7.2,3,14c-1,1.4-4.2,1.6-4.8,0c0.5-1.2,2.8-2.7-0.4-3.1c-4-0.1-6.4-4-6.2-6.3
		C520.6,612.1,526.2,609.8,528.5,607.7L528.5,607.7z"/>
	<path class="st8" d="M520.5,611.4c0.5,0.1,6.9,9.9-1.7,14.2c-1.4,1-4.5,0.2-4.5-1.6c0.8-1,3.5-1.7,0.6-3.1
		c-3.8-1.4-4.7-5.8-3.9-7.9C511.7,613.1,517.7,612.8,520.5,611.4L520.5,611.4z"/>
	<path class="st8" d="M511.2,612c0.4,0.2,3.1,11.7-6.4,12.8c-1.6,0.5-4.3-1.4-3.7-3c1.1-0.7,3.9-0.4,1.6-2.7
		c-3.1-2.6-2.5-7.1-0.9-8.8C502.3,610.6,508.1,612.3,511.2,612L511.2,612z"/>
	<path class="st8" d="M501.8,609.4c0.3,0.3-1.1,12-10.5,9.8c-1.7-0.1-3.6-2.8-2.5-4.1c1.3-0.2,3.8,1,2.4-2c-2-3.5,0.1-7.5,2.1-8.6
		C494,604.9,498.8,608.6,501.8,609.4L501.8,609.4z"/>
	<path class="st8" d="M493.9,603.9c0.2,0.4-5.3,10.8-13.3,5.5c-1.5-0.7-2.4-3.9-0.8-4.7c1.3,0.2,3.2,2.2,3-1c-0.6-4,2.7-7,5-7.2
		C488.2,597,491.4,602.1,493.9,603.9L493.9,603.9z"/>
	<path class="st8" d="M488.9,595.9c0,0.5-8.7,8.4-14.3,0.7c-1.2-1.2-0.9-4.4,0.8-4.7c1.1,0.7,2.2,3.2,3.1,0.1c0.8-4,5-5.6,7.2-5.1
		C485.8,587.5,487.1,593.4,488.9,595.9L488.9,595.9z"/>
	<path class="st8" d="M487.9,586.3c-0.2,0.4-11.1,4.8-13.6-4.5c-0.7-1.5,0.7-4.5,2.5-4.1c0.8,1,1,3.8,2.9,1.2
		c2.1-3.4,6.6-3.5,8.5-2.2C488,577.3,487.1,583.2,487.9,586.3L487.9,586.3z"/>
	<path class="st8" d="M488.3,577.5c-0.3,0.4-12,1-11.5-8.6c-0.2-1.7,2.1-4,3.6-3.1c0.5,1.2-0.3,3.9,2.4,2c3.1-2.6,7.4-1.2,8.8,0.6
		C491.3,569,488.6,574.4,488.3,577.5L488.3,577.5z"/>
	<path class="st8" d="M492.8,568.9c-0.4,0.2-11.6-3.2-7.8-12c0.4-1.6,3.4-3,4.5-1.7c0,1.3-1.6,3.6,1.5,2.7c3.8-1.3,7.4,1.4,8,3.6
		C498.5,562,494.1,566.1,492.8,568.9L492.8,568.9z"/>
	<path class="st8" d="M513.3,558.4c15,0,27.2,12.2,27.2,27.2s-12.2,27.2-27.2,27.2c-15,0-27.2-12.2-27.2-27.2
		S498.2,558.4,513.3,558.4L513.3,558.4z"/>
	<path class="st9" d="M513.3,561.7c13.2,0,23.9,10.7,23.9,23.9s-10.7,23.9-23.9,23.9c-13.2,0-23.9-10.7-23.9-23.9
		S500,561.7,513.3,561.7L513.3,561.7z M503.4,594.2c3.1,0.4,7.2-5.3,9.5-1.7c3.3-3.1,4.8,1.2,9.5,1.8c-2.6-0.4-6.8,6.5-9.4,3.6
		C509.6,600.6,507.9,594.2,503.4,594.2L503.4,594.2z M512.8,594.5l-8.8-0.3 M513.5,594.6l8.8-0.3 M506.2,603.8c0,0,6.7,4.9,13.5,0.1
		 M508.6,583.9c-4.3,2.6,0.8,4.3,4.6,4.7l0,1.9l0-1.9c0-0.3,9.5-0.6,4.7-4.9 M512.1,579.5l0,3 M514.9,579.5l0,3 M511,576.7
		c0,0-13.9-0.5-14.9-1.8C495.2,573.7,505.2,568.4,511,576.7L511,576.7z M515.6,576.7c0,0,13.9-0.2,14.9-1.4
		C531.5,574.1,521.6,568.5,515.6,576.7L515.6,576.7z M497.3,572.4c0,0,7-4.1,12,0.1 M517.5,572.7c0,0,5.7-4.4,11.9-0.1 M515.2,570.1
		c0,0,6.2-6,13.4-1.1 M497.7,569c0,0,7.4-5.5,13.8,1.1"/>
	<polygon class="st8" points="221.3,647.9 568.7,647.9 568.7,655 221.3,655 221.3,647.9 	"/>
	<polygon class="st12" points="236.6,630.7 553.1,630.7 553.1,636.1 236.6,636.1 236.6,630.7 	"/>
	<path class="st8" d="M236,635.3l320.4,0c3.1,0.6,6.4,2.2,6.1,9.8c0.2,1.4,0.7,2.4,2.1,3.4c-112.9,0-225.8-0.6-338.7-0.6
		c0.3-1.1,0.9-1.3,1.4-2.2C226.8,637.6,229,635.5,236,635.3L236,635.3z"/>
	<path class="st8" d="M358.7,328.2c0,0,1.6-1.1,3-0.2c1.4,1,1.8,3.4,1.8,3.4s1.4,0.8,2.9,0.4c1.5-0.5,4.8-1,4.8-1s3.2-0.1,4-0.7
		c0.8-0.6,1.5-1.6,1.6-2.7c0.1-1.1-0.2-2-0.2-2s6-0.2,6.6-0.2c0.6,0.1,2,1.7,2.7,1.8c0.7,0.1,1.1,0.1,1.1,0.1l0.4-3.2
		c0,0,0.6-0.8,2.5-0.2s4.8,3.9,4.8,3.9s0.4-3.6,1.4-3.8c1-0.2,3,0.8,3,0.8s2.7,2.3,3.5,2.5c0.8,0.2,2.9,0.4,2.9,0.4s1.1-1.1,2-2
		c0.8-0.9,1.2-1.3,1.2-1.3s0.3,1.6-0.2,3.1c-0.5,1.5-3.8,4.7-3.6,5.2c0.2,0.5,1.3,2,1.7,2.8c0.5,0.8,0.2,3,0.2,3.9
		c0.1,0.9,0.1,7.7,0.1,7.7s-0.2,2.3-0.8,2.3c-0.6-0.1-0.8,0.1-0.8,0.9c0.1,0.8,0.6,1,0.9,2.2c0.3,1.2,0.9,2.7,0.3,2.7
		c-0.6,0-1.9-0.7-1.9-0.7s-0.5,1.8,0.3,3.3c0.8,1.5,1.4,2.6,1.4,2.6s3.2,0,4.3,0c1.1,0,13,0.3,14.3,0.1c1.3-0.2,2.3-0.5,4.5-0.5
		c2.1,0,14.9,0.3,16-0.1c1.1-0.4,2.7-0.5,5.5-2.2c2.9-1.7,3.9-3.1,3.9-3.1s0.2-1.1,0-2.5c-0.2-1.4-1.1-3.1-2.4-3.6
		c-1.4-0.5-2.6-1.1-4.2-1.1c-1.6-0.1-4.9,0.1-6.9,0.5c-2,0.5-5.5,1.1-7.1,1.1s-8.5,0.4-10.5-0.2c-2-0.5-5.5-3-7-3
		c-1.6,0-2.2,0.5-2.2,0.5s-0.9,1-1,1.6c-0.1,0.6,0.2,1.7-0.5,1.7c-0.8,0-1.2,0-2.1-1.4c-0.9-1.4-0.7-4.5-0.6-5
		c0.1-0.5,1.7-0.8,1.4-1.5c-0.3-0.8-2.3-2.7-2.6-3.3c-0.3-0.7-1.4-3.6-1.3-5.5c0.2-2,0.6-4,2.3-5.7c1.7-1.7,5.3-3.6,5.3-3.6
		c5.5-3.3,15.9-2.5,21.8-0.1c3,1.2,4.9,3,6.9,4c2,1.1,4,2.9,6,4.4c2,1.5,5.1,4.5,6.3,4.5c1.2,0.1,1.6,0.1,1.6,0.1
		c-0.6-4.5,5.7-4.1,5.9-0.1c0.1,1.8-0.4,4.1-3,4.8c-0.7,0.2-4.4-0.1-4.4-0.1c-4.3-1.2-7.8-5.2-11.1-8.3c0.6,2.8,0.9,3,2,5.4
		c0,0-1.5,0.1-2.2-0.2c-2.2-0.9-5-3.4-5.2-4.2c-0.1,2.1-4,4.4-5.7,3.9c-0.6-0.2,5.3-6.3-2.2-9.6c2,5.2-2.2,9.4-7.4,9.6
		c4.6-4.6,2.3-11.1-4-11.1c0,0,0.8,4.5,0.1,4.7c-2.5,0.8-2.8-2.1-5.3-1.6c-4.2,0.9-3.8,7.1-0.4,7.1c0,0,1.4-2,2.7-2.1
		c1.2-0.2,3.9-0.2,3.9-0.2s2.5,0.6,2,1.1c-1.5,1.3-6.1,1.9-2.8,6.7c0,0,0.8-1.6,1.9-2c1.1-0.4,1.7-0.4,1.7-0.4s0.5-0.2,0.8,1
		c0.4,1.1,0.7,2.5,1.7,2.7c1,0.2,2.5,0.4,4.7,0.4c2.2,0,6.5-0.1,8.3-0.4c1.7-0.3,4.6-0.3,6.7-0.5c2.1-0.2,5.5-0.2,6.7,0.1
		c1.2,0.3,4.3,3.1,4.3,3.1s1.5,0.8,2.2,3.5c0.7,2.7,0.6,4.7,0.2,6c-0.5,1.3-3.2,4.2-3.2,4.2s-1.9,0.8-1.7,1.4
		c0.2,0.6,2.2,2.6,2.6,3.7c0.4,1.1,1.9,3.3,2,5.4c0.2,2.1-0.3,9.9-0.3,9.9s-1.1,4.4-1.8,5.8c-0.7,1.4-3,6.1-3,9.1s-0.5,6.8,1.1,8.5
		c1.5,1.7,3,2.6,3.8,2.6c0.8,0,0.9,0.6,0.9,1.4c0,0.8-4.7,4.1-4.9,5.6c-0.2,1.5-0.3,4-0.3,4c1.7,1.7,2.7,3.3,2,5.8l-3.8-0.1
		c0,0-0.7-2-1.4-1.4c-0.7,0.6-1.2,1.5-1.2,1.5l-3.2,0c0,0-0.5-1.4-1.3-1.4c-0.8,0-1.7,1.4-1.7,1.4l-2.8-0.1c0,0-1.3-1.9-1.9-1.4
		c-0.6,0.5-1.1,1.4-1.1,1.4s-1.5-0.6-2.3-0.3c-0.8,0.3-0.6,1.2-1.4,1s-2.8-1.8-3.9-1.7c-1.1,0.2-1.6,1.1-1.6,1.1l-2.3,0.2
		c0,0-0.9-2.1-1.5-1.6c-0.7,0.5-1.5,1.5-1.5,1.5l-2.6-0.1c0,0-0.6-1.7-1.4-1.3c-0.8,0.4-1.5,1.2-1.5,1.2l-2.6-0.1v-2.3
		c0.8-3.2,5-2.8,7.7-2.9c0,0,3,0.1,3.6-1.5c0.5-1.6-0.3-11.2-0.3-11.2c-3.1-5.7-8.5-8.6-8-15.7c0,0-4.3-0.1-5.2,0.3
		c-0.8,0.4-7,2.6-7,2.6l-13.9,5.6c0,0-1.3,1.6-2.4,3.4c-1.1,1.8-1.7,2-1.7,3.7c0,1.7,0.5,2.4,1.7,2.8c1.2,0.4,2.3-0.2,3.1,0.4
		c0.8,0.6,1,1.2,1,1.2s-0.3,1.2-1.8,2.3c-1.5,1.1-6.3,3.3-6.3,3.3l0.2,3.5c0,0,0.7,1.3,0.3,2c-0.4,0.8-1.1,2-1.8,2.5
		c-0.8,0.5-3.3,0-3.7,0s-0.8-1.5-1.7-0.9c-0.9,0.6-1,1.4-2.2,1.5c-1.2,0.2-1.9-0.1-1.9-0.1s-1.1-1.6-2.1-1.3c-1,0.3-1.8,1.1-1.8,1.1
		l-2,0.1c0,0-0.7-1.3-1.6-1.2c-0.9,0.1-1.5,0.8-1.5,0.8l-2-0.1l-0.2-1.8c0,0,0.5-2.2,2.4-3.3c2-1.1,3.2-1,3.2-1h5.3
		c0,0,1.8,0.1,2.7-1.8c0.9-1.9,0.8-3.5,0.8-5.1c-0.1-1.6-1.2-4.9-1.6-5.8c-0.4-1-1.4-3.3-1.4-3.3s-3-1.1-4.2-2
		c-1.2-1-3.3-2.1-3.3-2.1s-1.7,2.1-3,3.1c-1.4,1-3.5,2.2-4.6,1.7c-1.1-0.5-3.3-2.4-4.2-3.2c-0.9-0.8-2.3-2.1-2.9-2.4
		c-0.6-0.3-0.8-0.6-1.7,0.3c-0.9,0.9-1.9,0.5-1.9,0.5l-0.8-1.6v-7.1l-1.3-0.2l-2.3-0.3c1.2,0.2,3.6,3.9-1.6,3.9l0.2,1.2
		c3,1.5,0.2,3.7,0.2,3.7c0,0.5,0.2,3.6,0.2,3.6c0.8,2,2.1,0.7,2-0.1h1.9c0,0,1.2,0.5,1.1,1.5c-0.2,1.6-3.4,2.7-4.7,3.3
		c0,0,1.2,0.9,2.2,1.4c1,0.5,1.1,1,1.1,1c-1.1,0.1-3.4,0.2-3.4,0.2c-1.2,0.9-0.8,2.1-2.4,3.9c0,0-2.9-4.2-3.3-3.4l0.5-0.8l-3.6,0.3
		l3.2-2.7c-1.9,0.2-3.2-0.9-4.1-2.4V400c0.8-1.2,2.3-0.4,3,0.4c0,0,1.1,0.8,1.2-0.5c0.1-1.2,0.2-3.7,0.2-3.7
		c-2.9-2.6,0.8-3.9,0.7-4.3l-0.3-0.8c-0.6,0.1-2.9,0.6-2.9-0.6c0-0.5,0.1-1.8,0.1-1.9c0.2-0.3,1.2-1.2,2.7-0.7l0.2-1.2
		c0,0-1-0.6-1.1-1.4c-0.2-0.8,0.6-1.7,0.6-1.7s-1.4-0.2-1.3-1.1c0.1-0.9,1.1-1.7,1.1-1.7s-1.5-0.6-1.6-1.1c-0.5-3.5,1.3-1.1,0.8-3.6
		c-0.1-0.6-0.2-1.1-0.2-1.1c-5.2-1.3-7.4-7.9,0.1-8.2c0,0-0.1-26.4,0-27.1c1.1-13.8,4.2-20.4,12.7-25.4c-1.3,9.7-3.4,11.7-3.3,28.1
		c0,2.5-0.7,24-0.7,24c5.7,1,6.4,4.5,1.9,7.6l10.8,10.6c-1.8-10.2,3.1-18.9,12.3-23.4c0,0,2.9-2.3,3.1-3.4c0.2-1.1-0.2-1.5-0.2-1.5
		s-1.1-0.8-1.5-0.1c-0.5,0.7-1.1,2.2-1.7,2.3c-0.7,0.2-1.2,0-1.2,0s-1.3-3.6-1.6-3.1c-0.3,0.5-0.7,1.7-1.3,1.6s-1.3-2.5-2.7-2
		c-2.3,0.8-2,0.9-4.2,0.9c0,0,1.1-2,1.3-2.4c0.2-0.5-2.5,0.8-6.1,0.6c0,0,1.2-4.2,1.9-5.2c0.7-1,1-1.8,1-1.8s-1.7-1.5-1.7-2.2
		c-0.1-0.7-0.5-1.4,1.3-1.4c1.8,0,4.2,1.5,4.2,1.5s4.1,1.3,5.6,1.8c1.5,0.5,6.1,1,6.1,1s-2.4-3.3-3.1-4.2c-0.7-1-1.1-1.4-1.1-1.4
		s0.5,1.6-0.5,2c-0.9,0.4-3-1.6-3-1.6l0.1,2.3c0,0-3.9-2.1-6.4-5.5c-2.5-3.3-3.1-4.1-3.1-4.1s-1.1-3-1-4.4
		C356.6,329.7,358.7,328.2,358.7,328.2L358.7,328.2z"/>
	<path class="st9" d="M335.6,366.9c0,0,1.1,0.9,1.1,1.9c0.1,1-0.6,1-0.6,1.7c0,1.1,0.9,0.4,1,1.6l5.2-0.1c0-1,1.3-0.5,1.4-1.3
		c0.1-0.8-0.8-0.9-0.9-1.3c-0.2-1.2,0.7-1.7,1.2-2.3l0.3-0.4 M335.5,375.1l3.4,0.1l0.1,0c0,0,0.2,0,0.5,0c1-0.1,3.3-0.2,4.3-0.3
		c1.3-0.1,2.4-0.7,2.4-0.7 M335.7,377.1c0,0,1.5,0.5,2.8,0.8c3.7,0.9,4.3,2.7,6.7-0.3c0.7-0.9,0.6-1.7,0.6-1.7c-1,0.6-2.7,1.7-3.9,1
		c-0.8-0.5-1.9-1.6-1.9-1.6 M343.4,377.2c-0.4,0.4-0.6,2.3-0.6,2.3 M336.4,380.8c0,0,1.6,0.5,2.9,0.6c4.1,0.2,4.1,2,6.3-1.2
		c0.6-0.9,0.4-1.8,0.4-1.8c-2.2,1.2-2.9,2-5.6,0.1 M343.6,382.6c-0.4,0.4-1,2.1-1,2.1 M336.7,383.6c0,0,1.6,0.4,2.9,0.4
		c4.1,0.2,3.9,2.3,6-0.9c0.6-0.9,0.4-1.8,0.4-1.8c-2.2,1.2-2.2,2.1-5,0.2 M337.3,386.7c0,0,1.6,0.3,2.9,0.3c4.1,0.2,3.7,0.7,5.8-1.6
		c0.4-0.4,0.3-1.1,0.3-1.1c-2.2,1.2-1.9,1.5-5-0.1 M343.5,385.4c-0.4,0.4-0.8,1.8-0.8,1.8 M357,384.8c0,0,1.2,3.4,2.6,5
		c1.4,1.6,5.8,6.8,5.8,6.8 M372.8,388c0,0-0.7,1.7-0.7,3.3s0.3,5.2,0.3,5.2s0.7,1.6,0.7,2.4s0.1,2.7,0.1,2.7 M394.4,382
		c0,0,0.2,3.3-0.3,5c-0.5,1.7-1.2,4.2-1.2,4.2l-4.5,9.1 M416.2,389.4c8.6-1.7,12.9,6.4,18.9,10.1c0,0,0.1,0.1,0.3,0.2
		c0.7,0.5,2.7,1.6,4.1,2.5c1.8,1.1,3.8,3.6,3.8,3.6c1.6,2,0.9,7.5,0.9,9.6c0,0-2.3,1.3-3.4,1.4c-2.9,0.2-5.1,1.9-6.4,4.2l-0.9,1.7
		c0,0,0.8-1,0.9-2.4c0.1-2.6-0.5-2.6-0.8-4.8c-0.6-4.2,5-7.7,4.8-8.4c-0.3-1.1-1-1.3-1-1.3c-5.8,0.7-4.7-5.2-2-6.2 M377.8,343.8
		c0,0,1.3,2.9,2.2,3.3c0.9,0.5,1.2,0.5,1.2,0.5s0.5-2,1.1-2.3c0.6-0.3,0.6-0.6,0.6-0.6s0.5,1,1.4,1.6c0.9,0.6,1.7,0.7,1.7,0.7
		s0.3-2.3,0.2-2.7c-0.2-0.4-0.5-1.4-0.5-1.4s0.8,2.3,1.6,2.3c0.8,0,1.1-0.4,1.1-0.4v-2.6c0,0,1.7,2.6,2.3,2.3c0.7-0.3,1-0.7,1-1.4
		c0-0.7,0-1.7,0-1.7s1.4,1.4,2.3,1.8c0.9,0.5,2.2,1.9,2.2,1.9s0.5-2.3,0.5-3.2c0.1-0.9-0.8-3-0.8-3s1.4,1,1.7,1.9
		c0.3,0.9,0.5,3.4,0.5,3.4s0.7,0.8,1.4,1.7c0.7,0.8,1.9,2.1,1.9,2.1l1,1.1 M403.7,342.1l-3.7-3.3 M401,329.6
		c-4.2,2.8-5.3,3.1-10.3,2.8c0,0,2.9,2.8,2.4,3c-1.8,0.9-7.8,0.6-9.1-1.4c0.7,1.8,0.9,1.9,2.2,3.1l-3.7-0.1
		c-1.2-0.9-6.3-3.7-7.5-3.1c-5,2.6,2.1,5.7,1.1,1.3 M387.7,349.4c0,0,2,2.8,2.5,2.4c1.2-0.9,1.4-2.2,0.8-3.5
		c0.6,0.4,2.4,2.7,2.9,2.5c1-0.4,1-1.7,1.5-2.4c1.9,2.8,2.8,3.7,6.1,5.8 M379.5,350.9c0.5,0.5,2.2,2.3,3.4,3.2c0,0,1.1-1.4,1.4-2.7
		c0.4,0.3,2.3,1.3,3.3,4c0.1,0.2,0.5-1.5,1.3-1.2c0,0,1.1,1.1,2.4,2.2c1.4,1,1.9,1.4,2.2,1.4c0.3,0,0.9-1.7,0.9-1.7
		c1.2,0.9,4.5,4.1,8.3,3.6 M374.2,355.9c0.7,0.3,0.9,3.4,1.5,3.3c0.5-0.2,1.7-2.7,2.3-2.7c0.5-0.1-0.1,2.9,0.8,3.1
		c0.9,0.2,1.8-3,2.6-2.9c0.8,0.1,2.7,4.4,3.3,3.6c0.6-0.8,0.4-3.4,1.2-3c0.8,0.3,4.1,3.7,4.5,3.3c0.4-0.3,0.5-0.1,0.6-1.4
		c0-1.3,0.3-2.8,0.3-2.8 M371.4,348.1c0,0,1.6,1.2,1.8,2.6c0.2,1.4-0.1,1.7-0.1,1.7s-0.7,0.5-1.7,0c-1.1-0.5-2.7-0.3-3.5-0.3
		c-0.8,0-1.1,0-1.1,0s0.5-0.5,0.8-1.3c0.3-0.8,0.3-1,0.3-1s-1.7-0.1-3.1-0.1c-1.4,0-1.1,0.1-2.9-0.5s-3.8-0.9-4.5-1.1
		c-0.8-0.2-1.6-0.7-1.6-0.7 M372.2,361.2c-0.3,2-2.7,4.7-2.4,4.7c0.7,0,2.5-0.3,3.7-1.1c1.1-0.8,1,1.4,1,1.4s0.2,2.9,0.5,2.8
		c1.7-0.3,4-2.9,4-4.9l1.1,4c1.5,0,2.8-3.6,3.2-4.2c0,0,0.8,1.1,1.3,2.2c0.5,1.1,1.8,1.1,2-0.1c0.2-1.5,1.1-4.9,1.7-4.1
		c0.8,1.1,1.9,4.9,2.6,6.4c0.3,0.7,1,0.6,1.8-0.5c0.8-1.1,1.5-2,2.3-2c1.8,0.2,3.3,2.1,6.1,1.8l0.1-4.2c1.9,0.1,4,0.3,5.5-0.5
		c-1.8-0.9-2.1-1.9-3.1-2.8 M342.9,379.7c-0.4,0.4-0.6,2.3-0.6,2.3"/>
	<path class="st8" d="M384,278.1c-1-7.3-4.5-22.2-0.9-29.2c3.4-6.7,4.7-6.4,11.8-6.6c7.1-0.2,18.9-1.5,20.9,7.1
		c2.3,10.2-0.4,19.4-3.1,29.1l-4.7-0.7c1.7-4.3,7.2-23.6,1-26.1c-3.4-1.4-9.5,2.9-16.3-0.8c-1.5-0.8-4,0.7-4,0.7
		c-4.2,9-1.4,17.4,0,25.8L384,278.1L384,278.1z"/>
	<path class="st9" d="M392.3,264.4c-0.5,5.4,0.4,8,1.1,12.8 M390.4,262.3c-1,4.1-0.1,10.6,0.8,14.9"/>
	<path class="st8" d="M390.1,277.2c-1.3-7-3.1-15.6-0.7-22.5c0,0,1.2-2,2.4-1.2c8.7,6.2,13.8,0.2,15.5,0.9c1.1,0.4,1.7,0.5,1.9,1.4
		c1.5,6.4-0.5,14.3-2.2,21.9l-6.9-0.4l-1.8-14.7c-0.6,5.6-1.1,9.2-3.2,14.5L390.1,277.2L390.1,277.2z"/>
	<path class="st8" d="M382,278.2c-1.8-11.8-4.3-24.9-2.7-27.8c0.8-1.4,0.9-1.8,0.7-2c-2.7-1.8-3.9-3.3-5.5-3.1
		c-1.5,0.2-2.9,2.3-4.6,4.4c-0.2,0.4,1.7,2.5,2.4,3.8c2.5,4.8,4.3,18.3,5.5,25.3L382,278.2L382,278.2z"/>
	<path class="st9" d="M404.5,264.8c0.1,5.4-1,8-2,12.7 M406.6,262.9c0.3,6.2-0.8,9.2-1.7,14.7 M393,264.2c-0.7,5.4,0.3,8,0.8,12.8
		 M391.1,262.4c-0.9,6.2-0.1,9.2,0.3,14.8"/>
	<path class="st8" d="M410.6,464.2c1.1,7.3,4.5,22.2,1,29.2c-3.4,6.7-4.7,6.4-11.8,6.6c-7.1,0.3-18.9,1.5-20.9-7
		c-2.3-10.2,0.4-19.4,3-29.1l4.7,0.7c-1.7,4.3-7.2,23.6-0.9,26.1c3.4,1.4,9.5-2.9,16.3,0.7c1.5,0.8,4-0.7,4-0.7
		c4.1-9.1,1.3-17.4-0.1-25.8L410.6,464.2L410.6,464.2z"/>
	<path class="st9" d="M402.3,478c0.5-5.4-0.5-8-1.1-12.8 M404.2,480.1c1-4.1,0.1-10.6-0.8-14.9"/>
	<path class="st8" d="M404.5,465.1c1.3,7,3.1,15.6,0.8,22.5c0,0-1.2,2-2.4,1.2c-8.8-6.1-13.8-0.2-15.5-0.9c-1.1-0.4-1.7-0.5-1.9-1.4
		c-1.5-6.4,0.4-14.3,2.1-21.9l6.9,0.4l1.8,14.7c0.6-5.6,1.1-9.2,3.2-14.5L404.5,465.1L404.5,465.1z"/>
	<path class="st8" d="M412.6,464.1c1.8,11.8,4.4,24.9,2.8,27.7c-0.8,1.4-0.9,1.8-0.7,2c2.7,1.7,3.9,3.3,5.5,3.1
		c1.5-0.2,2.9-2.3,4.6-4.4c0.2-0.4-1.7-2.5-2.4-3.8c-2.5-4.8-4.4-18.3-5.6-25.3L412.6,464.1L412.6,464.1z"/>
	<path class="st9" d="M390.2,477.6c-0.2-5.4,1-8,2-12.7 M388.1,479.5c-0.3-6.2,0.8-9.2,1.6-14.7 M401.6,478.2
		c0.6-5.4-0.3-8-0.8-12.8 M403.5,479.9c0.9-6.2,0-9.2-0.3-14.8"/>
	<path class="st8" d="M490.2,359c7.3-1.1,22.2-4.6,29.2-1.1c6.8,3.4,6.4,4.7,6.7,11.8c0.3,7.1,1.6,18.9-7,20.9
		c-10.2,2.4-19.4-0.3-29.1-3l0.7-4.7c4.3,1.7,23.6,7.1,26.1,0.9c1.4-3.4-2.9-9.5,0.7-16.3c0.8-1.5-0.7-4-0.7-4
		c-9.1-4.1-17.4-1.3-25.8,0.2L490.2,359L490.2,359z"/>
	<path class="st9" d="M504,367.3c-5.4-0.5-8,0.5-12.8,1.1 M506,365.4c-4.1-1-10.6-0.1-14.9,0.8"/>
	<path class="st8" d="M491.1,365.2c7-1.3,15.6-3.2,22.5-0.8c0,0,2,1.2,1.2,2.4c-6.1,8.8-0.2,13.8-0.8,15.5c-0.4,1.1-0.5,1.7-1.4,1.9
		c-6.4,1.5-14.3-0.4-21.9-2.1l0.3-6.9l14.7-1.9c-5.6-0.6-9.2-1.1-14.5-3.2L491.1,365.2L491.1,365.2z"/>
	<path class="st8" d="M490,357.1c11.8-1.8,24.9-4.4,27.7-2.8c1.5,0.8,1.8,0.9,2,0.7c1.7-2.7,3.2-3.9,3-5.5c-0.2-1.5-2.3-2.9-4.4-4.6
		c-0.4-0.2-2.5,1.7-3.8,2.4c-4.8,2.5-18.3,4.4-25.3,5.6L490,357.1L490,357.1z"/>
	<path class="st9" d="M503.6,379.5c-5.4,0.2-8-1-12.7-1.9 M505.5,381.6c-6.2,0.3-9.2-0.8-14.7-1.6 M504.1,368.1
		c-5.4-0.6-8,0.3-12.8,0.9 M505.9,366.1c-6.2-0.8-9.2,0-14.8,0.4"/>
	<path class="st8" d="M304.2,383.6c-7.3,1.1-22.2,4.6-29.2,1.2c-6.8-3.4-6.4-4.7-6.7-11.7c-0.3-7.1-1.6-18.9,6.9-20.9
		c10.2-2.4,19.4,0.3,29.1,2.9l-0.7,4.7c-4.3-1.7-23.6-7-26.1-0.8c-1.4,3.4,2.9,9.5-0.7,16.3c-0.8,1.5,0.7,4,0.7,4
		c9.1,4.1,17.4,1.2,25.8-0.2L304.2,383.6L304.2,383.6z"/>
	<path class="st9" d="M290.4,375.4c5.4,0.5,8-0.5,12.8-1.2 M288.3,377.3c4.2,1,10.6,0,14.9-0.9"/>
	<path class="st8" d="M303.2,377.5c-6.9,1.3-15.6,3.2-22.5,0.9c0,0-2-1.2-1.2-2.4c6.1-8.8,0.1-13.8,0.8-15.5
		c0.4-1.1,0.5-1.7,1.4-1.9c6.4-1.6,14.3,0.4,21.9,2l-0.3,6.9l-14.7,1.9c5.7,0.6,9.2,1.1,14.6,3.1L303.2,377.5L303.2,377.5z"/>
	<path class="st8" d="M304.3,385.6c-11.8,1.9-24.9,4.5-27.7,2.9c-1.5-0.8-1.8-0.9-2-0.7c-1.7,2.7-3.2,3.9-3,5.5
		c0.2,1.5,2.3,2.9,4.4,4.6c0.4,0.2,2.5-1.7,3.8-2.4c4.8-2.5,18.3-4.5,25.2-5.7L304.3,385.6L304.3,385.6z"/>
	<path class="st9" d="M290.7,363.2c5.4-0.2,8,0.9,12.7,1.9 M288.8,361.1c6.2-0.3,9.2,0.7,14.7,1.5 M290.2,374.7
		c5.4,0.6,8-0.3,12.8-0.9 M288.4,376.6c6.2,0.8,9.2,0,14.8-0.4"/>
	<path class="st8" d="M454,296.3c4.5-5.9,12.6-18.8,20.1-21.2c7.2-2.3,7.8-1.1,13,3.7c5.2,4.9,14.4,12.4,9.6,19.8
		c-5.6,8.8-14.1,13.3-22.9,18.3l-2.8-3.9c4.3-1.8,21.8-11.4,19.3-17.7c-1.4-3.4-8.7-4.7-10.9-12.1c-0.5-1.7-3.3-2.4-3.3-2.4
		c-9.4,3.4-13.3,11.3-18.3,18.2L454,296.3L454,296.3z"/>
	<path class="st9" d="M469.6,292.6c-4.2,3.4-5.4,5.9-8.4,9.8 M469.8,289.8c-3.7,2.2-7.6,7.4-10.1,11"/>
	<path class="st8" d="M459,300.1c4.1-5.8,8.9-13.2,15.5-16.3c0,0,2.3-0.6,2.5,0.9c1.8,10.5,9.5,9.9,10.3,11.7
		c0.5,1.1,0.8,1.6,0.4,2.3c-3.5,5.6-10.5,9.7-17.1,13.8l-4.6-5.2l9.2-11.6c-4.5,3.5-7.4,5.7-12.6,7.9L459,300.1L459,300.1z"/>
	<path class="st8" d="M452.6,295c7.2-9.6,14.7-20.6,17.8-21.4c1.6-0.4,2-0.6,1.9-0.9c-0.6-3.1-0.4-5.1-1.7-6.1
		c-1.2-0.9-3.7-0.5-6.4-0.2c-0.4,0.2-0.5,3-1,4.4c-1.7,5.2-10,16-14.1,21.7L452.6,295L452.6,295z"/>
	<path class="st9" d="M477.9,301.6c-3.7,3.9-6.4,4.9-10.4,7.5 M480.8,301.7c-4.2,4.6-7.1,5.9-11.6,9.1 M470.3,293
		c-4.3,3.3-5.5,5.8-8.6,9.6 M470.2,290.4c-5,3.7-6.6,6.4-10.3,10.6"/>
	<path class="st8" d="M340.5,446.2c-4.5,5.9-12.6,18.8-20,21.3c-7.2,2.3-7.8,1.1-13-3.7c-5.2-4.9-14.4-12.4-9.7-19.8
		c5.6-8.8,14-13.4,22.8-18.4l2.8,3.9c-4.3,1.8-21.8,11.5-19.2,17.8c1.4,3.4,8.7,4.7,10.9,12.1c0.5,1.7,3.3,2.4,3.3,2.4
		c9.4-3.4,13.3-11.3,18.3-18.3L340.5,446.2L340.5,446.2z"/>
	<path class="st9" d="M324.9,450c4.2-3.4,5.4-6,8.3-9.8 M324.8,452.8c3.7-2.2,7.6-7.4,10-11.1"/>
	<path class="st8" d="M335.5,442.5c-4,5.8-8.9,13.2-15.4,16.4c0,0-2.3,0.6-2.5-0.9c-1.8-10.5-9.5-9.9-10.3-11.6
		c-0.5-1.1-0.8-1.6-0.4-2.3c3.5-5.6,10.4-9.7,17-13.9l4.6,5.2l-9.1,11.6c4.5-3.5,7.3-5.7,12.6-8L335.5,442.5L335.5,442.5z"/>
	<path class="st8" d="M342,447.5c-7.1,9.6-14.6,20.6-17.8,21.5c-1.6,0.4-2,0.6-1.9,0.9c0.6,3.1,0.4,5.1,1.7,6.1
		c1.2,0.9,3.7,0.5,6.4,0.2c0.4-0.2,0.5-3,1-4.4c1.7-5.2,9.9-16,14-21.7L342,447.5L342,447.5z"/>
	<path class="st9" d="M316.6,441.1c3.7-3.9,6.3-4.9,10.4-7.6 M313.8,441c4.2-4.6,7.1-5.9,11.6-9.2 M324.3,449.6
		c4.3-3.3,5.5-5.8,8.5-9.6 M324.3,452.2c5-3.7,6.6-6.5,10.3-10.6"/>
	<path class="st8" d="M472.3,429.2c5.9,4.4,18.9,12.6,21.3,20c2.4,7.2,1.2,7.8-3.7,13c-4.9,5.2-12.3,14.4-19.8,9.7
		c-8.8-5.6-13.4-14-18.4-22.8l3.9-2.8c1.9,4.3,11.5,21.8,17.8,19.2c3.4-1.4,4.7-8.7,12.1-10.9c1.7-0.5,2.4-3.3,2.4-3.3
		c-3.4-9.3-11.3-13.3-18.3-18.2L472.3,429.2L472.3,429.2z"/>
	<path class="st9" d="M476.1,444.8c-3.4-4.2-6-5.4-9.8-8.3 M478.9,444.9c-2.2-3.7-7.4-7.6-11.1-10"/>
	<path class="st8" d="M468.6,434.2c5.8,4,13.2,8.9,16.4,15.4c0,0,0.6,2.3-0.9,2.5c-10.5,1.8-9.9,9.6-11.6,10.3
		c-1.1,0.5-1.6,0.9-2.3,0.4c-5.6-3.4-9.7-10.4-13.9-17l5.1-4.6l11.6,9.1c-3.5-4.4-5.7-7.3-8-12.6L468.6,434.2L468.6,434.2z"/>
	<path class="st8" d="M473.6,427.7c9.6,7.1,20.7,14.6,21.5,17.7c0.4,1.6,0.6,2,0.9,1.9c3.1-0.6,5.1-0.4,6.1-1.7
		c0.9-1.2,0.4-3.7,0.2-6.4c-0.2-0.4-3-0.5-4.4-1c-5.2-1.7-16-9.9-21.8-14L473.6,427.7L473.6,427.7z"/>
	<path class="st9" d="M467.2,453.1c-3.9-3.7-4.9-6.3-7.6-10.4 M467.1,455.9c-4.6-4.2-5.9-7.1-9.2-11.6 M475.7,445.4
		c-3.3-4.2-5.8-5.5-9.6-8.5 M478.3,445.4c-3.8-5-6.5-6.6-10.6-10.2"/>
	<path class="st8" d="M321.8,313.4c-5.9-4.4-18.9-12.5-21.4-19.9c-2.4-7.2-1.2-7.8,3.6-13c4.8-5.2,12.3-14.4,19.7-9.8
		c8.8,5.5,13.5,14,18.5,22.7l-3.9,2.8c-1.9-4.2-11.6-21.7-17.8-19.1c-3.4,1.4-4.7,8.7-12,11c-1.7,0.5-2.4,3.3-2.4,3.3
		c3.5,9.3,11.4,13.2,18.3,18.2L321.8,313.4L321.8,313.4z"/>
	<path class="st9" d="M318,297.8c3.4,4.2,6,5.3,9.9,8.3 M315.2,297.7c2.2,3.7,7.4,7.5,11.1,10"/>
	<path class="st8" d="M325.5,308.4c-5.8-4-13.3-8.8-16.4-15.3c0,0-0.6-2.3,0.9-2.5c10.5-1.9,9.9-9.6,11.6-10.4
		c1.1-0.5,1.6-0.9,2.3-0.4c5.6,3.4,9.8,10.4,13.9,17l-5.1,4.6l-11.7-9.1c3.6,4.4,5.7,7.3,8,12.5L325.5,308.4L325.5,308.4z"/>
	<path class="st8" d="M320.6,314.9c-9.7-7.1-20.7-14.5-21.6-17.7c-0.4-1.6-0.6-2-0.9-1.9c-3.1,0.7-5.1,0.5-6.1,1.7
		c-0.9,1.2-0.4,3.7-0.2,6.4c0.2,0.4,3,0.5,4.4,1c5.2,1.7,16,9.9,21.8,13.9L320.6,314.9L320.6,314.9z"/>
	<path class="st9" d="M326.9,289.5c3.9,3.7,4.9,6.3,7.6,10.4 M327,286.7c4.6,4.2,5.9,7,9.2,11.5 M318.4,297.2
		c3.3,4.2,5.9,5.5,9.7,8.5 M315.8,297.3c3.8,5,6.5,6.5,10.7,10.2"/>
	<path class="st8" d="M420.7,280.5c1.8-7.2,4.4-22.2,10.3-27.3c5.7-4.9,6.8-4.1,13.4-1.6c6.7,2.5,18,5.9,16.6,14.5
		c-1.7,10.3-7.8,17.8-14,25.7l-4.1-2.5c3.2-3.3,15.7-19,10.9-23.8c-2.6-2.6-9.9-1-14.7-6.9c-1.1-1.3-4-0.9-4-0.9
		c-7.3,6.8-7.9,15.6-9.8,23.9L420.7,280.5L420.7,280.5z"/>
	<path class="st9" d="M433.7,270.9c-2.5,4.8-2.7,7.6-3.9,12.3 M432.7,268.3c-2.5,3.4-4.1,9.7-5,14.1"/>
	<path class="st8" d="M426.8,282c1.5-6.9,3.1-15.6,7.9-21c0,0,1.9-1.4,2.7-0.2c5.7,9,12.6,5.5,14,6.8c0.9,0.8,1.4,1.1,1.3,2
		c-1,6.5-5.9,13-10.4,19.4l-6.2-3l4-14.3c-2.7,5-4.6,8.1-8.5,12.2L426.8,282L426.8,282z"/>
	<path class="st8" d="M418.9,279.8c2.9-11.6,5.5-24.7,8.1-26.7c1.3-1,1.6-1.3,1.4-1.5c-1.8-2.6-2.3-4.5-3.9-4.9
		c-1.5-0.4-3.6,1-6,2.3c-0.3,0.3,0.6,2.9,0.8,4.5c0.4,5.4-3,18.6-4.6,25.5L418.9,279.8L418.9,279.8z"/>
	<path class="st9" d="M444.8,276c-1.9,5-4,7-6.7,11 M447.5,275c-2.1,5.9-4.2,8.2-7.1,12.9 M434.4,271.1c-2.6,4.7-2.8,7.5-4.2,12.2
		 M433.4,268.7c-3.2,5.4-3.6,8.5-5.4,13.7"/>
	<path class="st8" d="M373.8,462c-1.8,7.2-4.3,22.2-10.2,27.4c-5.7,4.9-6.8,4.1-13.4,1.6c-6.7-2.5-18.1-5.8-16.6-14.5
		c1.7-10.3,7.7-17.8,13.9-25.8l4.1,2.5c-3.2,3.4-15.6,19.1-10.8,23.8c2.6,2.6,9.9,0.9,14.8,6.9c1.1,1.3,4,0.9,4,0.9
		c7.3-6.8,7.9-15.6,9.7-23.9L373.8,462L373.8,462z"/>
	<path class="st9" d="M360.9,471.5c2.5-4.8,2.6-7.6,3.9-12.3 M361.9,474.2c2.5-3.4,4.1-9.8,4.9-14.1"/>
	<path class="st8" d="M367.8,460.5c-1.5,6.9-3.1,15.6-7.9,21.1c0,0-1.9,1.4-2.7,0.2c-5.8-9-12.6-5.4-14-6.7c-0.9-0.8-1.4-1.1-1.3-2
		c1-6.5,5.8-13,10.3-19.4l6.2,3l-3.9,14.3c2.7-5,4.5-8.1,8.5-12.2L367.8,460.5L367.8,460.5z"/>
	<path class="st8" d="M375.7,462.6c-2.8,11.6-5.4,24.7-8,26.7c-1.3,1-1.6,1.3-1.4,1.5c1.8,2.6,2.4,4.5,3.9,4.9c1.5,0.4,3.6-1,6-2.3
		c0.3-0.3-0.7-2.9-0.8-4.4c-0.5-5.4,2.9-18.6,4.5-25.5L375.7,462.6L375.7,462.6z"/>
	<path class="st9" d="M349.8,466.5c1.9-5,3.9-7,6.7-11 M347.2,467.5c2.1-5.9,4.2-8.2,7.1-12.9 M360.2,471.4
		c2.6-4.7,2.8-7.5,4.1-12.2 M361.3,473.8c3.2-5.4,3.5-8.5,5.3-13.8"/>
	<path class="st8" d="M488,395.8c7.2,1.8,22.2,4.3,27.4,10.2c5,5.7,4.1,6.8,1.7,13.4c-2.5,6.7-5.8,18.1-14.4,16.6
		c-10.3-1.7-17.8-7.7-25.8-13.9l2.5-4.1c3.4,3.2,19.1,15.6,23.8,10.8c2.6-2.6,0.9-9.9,6.9-14.8c1.3-1.1,0.9-4,0.9-4
		c-6.8-7.3-15.6-7.8-23.9-9.7L488,395.8L488,395.8z"/>
	<path class="st9" d="M497.6,408.7c-4.8-2.5-7.6-2.6-12.3-3.9 M500.2,407.8c-3.4-2.5-9.8-4.1-14.1-4.9"/>
	<path class="st8" d="M486.5,401.9c6.9,1.5,15.7,3,21.1,7.8c0,0,1.4,1.9,0.2,2.7c-9,5.8-5.4,12.7-6.7,14c-0.8,0.9-1.1,1.4-2,1.3
		c-6.5-1-13-5.8-19.4-10.3l3-6.3l14.3,3.9c-5-2.7-8.1-4.5-12.2-8.5L486.5,401.9L486.5,401.9z"/>
	<path class="st8" d="M488.6,394c11.6,2.8,24.7,5.4,26.7,8c1,1.3,1.3,1.6,1.5,1.4c2.6-1.8,4.5-2.4,4.9-3.9c0.4-1.5-1-3.6-2.3-6
		c-0.3-0.3-2.9,0.7-4.4,0.8c-5.4,0.5-18.6-2.9-25.5-4.5L488.6,394L488.6,394z"/>
	<path class="st9" d="M492.5,419.8c-5-1.9-7-3.9-11-6.6 M493.6,422.5c-5.9-2.1-8.2-4.2-13-7.1 M497.4,409.5
		c-4.7-2.6-7.5-2.8-12.2-4.1 M499.8,408.4c-5.4-3.1-8.5-3.5-13.8-5.3"/>
	<path class="st8" d="M306.2,346.8c-7.2-1.8-22.3-4.2-27.4-10.1c-5-5.7-4.1-6.8-1.7-13.4c2.4-6.7,5.7-18.1,14.4-16.7
		c10.3,1.7,17.8,7.7,25.8,13.8l-2.5,4.1c-3.4-3.2-19.1-15.5-23.9-10.7c-2.6,2.6-0.9,9.9-6.8,14.8c-1.3,1.1-0.9,4-0.9,4
		c6.8,7.3,15.6,7.8,24,9.6L306.2,346.8L306.2,346.8z"/>
	<path class="st9" d="M296.6,334c4.8,2.5,7.6,2.6,12.3,3.8 M294,334.9c3.5,2.5,9.8,4.1,14.1,4.9"/>
	<path class="st8" d="M307.7,340.8c-6.9-1.4-15.7-3-21.1-7.8c0,0-1.4-1.9-0.2-2.7c9-5.8,5.4-12.7,6.7-14.1c0.8-0.9,1.1-1.4,2-1.3
		c6.5,1,13,5.8,19.4,10.2l-2.9,6.3l-14.3-3.8c5,2.7,8.1,4.5,12.3,8.4L307.7,340.8L307.7,340.8z"/>
	<path class="st8" d="M305.6,348.7c-11.7-2.8-24.7-5.3-26.7-7.9c-1-1.3-1.3-1.6-1.5-1.4c-2.6,1.8-4.5,2.4-4.9,4
		c-0.4,1.5,1,3.6,2.3,5.9c0.3,0.3,2.9-0.7,4.4-0.8c5.4-0.5,18.6,2.9,25.5,4.4L305.6,348.7L305.6,348.7z"/>
	<path class="st9" d="M301.6,322.8c5.1,1.9,7,3.9,11,6.6 M300.6,320.2c5.9,2.1,8.2,4.2,13,7 M296.7,333.2c4.7,2.6,7.5,2.8,12.2,4.1
		 M294.4,334.3c5.4,3.1,8.5,3.5,13.8,5.3"/>
	<path class="st8" d="M478.2,324.1c6.4-3.7,18.9-12.5,26.7-11.9c7.5,0.6,7.7,2,10.6,8.4c2.9,6.5,8.5,17,1.3,22
		c-8.5,6-18.1,7-28.1,8.2l-1.1-4.7c4.6-0.1,24.5-2.2,24.6-9c0-3.7-6.2-7.7-5.4-15.4c0.2-1.7-2.2-3.5-2.2-3.5
		c-10-0.4-16.6,5.3-23.9,9.8L478.2,324.1L478.2,324.1z"/>
	<path class="st9" d="M494.1,326.6c-5.2,1.5-7.2,3.4-11.5,5.8 M495.3,324.1c-4.2,0.6-9.8,3.9-13.5,6.4"/>
	<path class="st8" d="M481.4,329.5c6-3.8,13.3-8.8,20.5-9.2c0,0,2.3,0.3,2,1.8c-2.4,10.4,5,12.8,5,14.7c0,1.2,0.2,1.8-0.5,2.3
		c-5.3,3.8-13.4,5-21.1,6.2l-2.3-6.5l12.9-7.2c-5.5,1.5-9,2.4-14.7,2.5L481.4,329.5L481.4,329.5z"/>
	<path class="st8" d="M477.4,322.4c10.3-6.1,21.4-13.4,24.7-13c1.7,0.2,2.1,0.2,2.1-0.1c0.6-3.1,1.5-4.8,0.8-6.3
		c-0.7-1.3-3.3-1.8-5.8-2.6c-0.4,0-1.6,2.5-2.6,3.7c-3.5,4.1-15.3,10.9-21.3,14.7L477.4,322.4L477.4,322.4z"/>
	<path class="st9" d="M498.3,338.1c-4.9,2.2-7.7,2.1-12.5,3 M500.9,339.3c-5.7,2.6-8.8,2.7-14.2,4 M494.5,327.3
		c-5.2,1.4-7.3,3.3-11.6,5.6 M495.5,324.8c-6.1,1.5-8.6,3.4-13.6,5.9"/>
	<path class="st8" d="M316.2,418.5c-6.4,3.8-18.8,12.6-26.6,12c-7.5-0.6-7.7-1.9-10.6-8.4c-2.9-6.5-8.6-16.9-1.4-22
		c8.5-6,18.1-7,28.1-8.3l1.1,4.7c-4.6,0.1-24.5,2.3-24.5,9.1c0,3.7,6.3,7.7,5.5,15.3c-0.2,1.7,2.2,3.5,2.2,3.5
		c10,0.4,16.6-5.4,23.8-9.9L316.2,418.5L316.2,418.5z"/>
	<path class="st9" d="M300.3,416.1c5.2-1.6,7.2-3.5,11.5-5.9 M299.2,418.6c4.2-0.6,9.8-3.9,13.5-6.4"/>
	<path class="st8" d="M313.1,413.2c-5.9,3.8-13.3,8.8-20.5,9.2c0,0-2.3-0.3-2-1.8c2.4-10.4-5-12.8-5.1-14.7c0-1.2-0.2-1.8,0.5-2.3
		c5.3-3.8,13.4-5,21-6.3l2.3,6.5l-12.9,7.3c5.5-1.6,9-2.5,14.7-2.6L313.1,413.2L313.1,413.2z"/>
	<path class="st8" d="M317.1,420.2c-10.3,6.2-21.4,13.5-24.6,13.1c-1.7-0.2-2.1-0.2-2.1,0.1c-0.6,3.1-1.5,4.8-0.7,6.3
		c0.7,1.3,3.3,1.8,5.8,2.6c0.4,0,1.6-2.5,2.6-3.7c3.5-4.1,15.3-11,21.3-14.7L317.1,420.2L317.1,420.2z"/>
	<path class="st9" d="M296.1,404.6c4.9-2.2,7.7-2.1,12.5-3 M293.5,403.4c5.7-2.7,8.8-2.8,14.2-4.1 M299.9,415.4
		c5.2-1.4,7.3-3.3,11.6-5.6 M299,417.9c6.1-1.6,8.5-3.5,13.5-5.9"/>
	<path class="st8" d="M444.6,453.5c3.8,6.4,12.6,18.8,12,26.6c-0.6,7.5-1.9,7.7-8.4,10.6c-6.5,2.9-16.9,8.6-22,1.4
		c-6-8.5-7-18.1-8.3-28.1l4.7-1.1c0.1,4.6,2.3,24.5,9.1,24.5c3.7,0,7.7-6.3,15.3-5.5c1.7,0.2,3.5-2.2,3.5-2.2
		c0.4-10-5.4-16.6-9.9-23.8L444.6,453.5L444.6,453.5z"/>
	<path class="st9" d="M442.2,469.4c-1.6-5.2-3.5-7.2-5.9-11.4 M444.7,470.6c-0.6-4.2-4-9.8-6.4-13.5"/>
	<path class="st8" d="M439.3,456.7c3.8,5.9,8.9,13.3,9.3,20.5c0,0-0.3,2.3-1.8,2c-10.4-2.3-12.8,5.1-14.7,5.1
		c-1.2,0-1.8,0.2-2.3-0.5c-3.8-5.3-5-13.3-6.3-21l6.5-2.3l7.3,12.9c-1.6-5.5-2.5-8.9-2.6-14.7L439.3,456.7L439.3,456.7z"/>
	<path class="st8" d="M446.3,452.7c6.2,10.3,13.5,21.4,13.1,24.6c-0.2,1.7-0.2,2.1,0.1,2.1c3.1,0.6,4.8,1.5,6.3,0.7
		c1.3-0.7,1.8-3.3,2.6-5.8c0-0.4-2.5-1.6-3.7-2.6c-4.1-3.5-11-15.3-14.8-21.3L446.3,452.7L446.3,452.7z"/>
	<path class="st9" d="M430.7,473.6c-2.2-4.9-2.1-7.7-3-12.5 M429.5,476.2c-2.7-5.7-2.8-8.8-4.1-14.2 M441.5,469.8
		c-1.4-5.2-3.3-7.3-5.7-11.6 M444,470.8c-1.6-6.1-3.5-8.5-5.9-13.5"/>
	<path class="st8" d="M349.4,289c-3.8-6.4-12.7-18.8-12.1-26.6c0.5-7.5,1.9-7.7,8.3-10.6c6.5-3,16.9-8.7,22-1.5
		c6.1,8.5,7.1,18.1,8.4,28l-4.7,1.1c-0.1-4.6-2.4-24.5-9.2-24.5c-3.7,0-7.6,6.3-15.3,5.5c-1.7-0.2-3.5,2.2-3.5,2.2
		c-0.4,10,5.5,16.6,10,23.8L349.4,289L349.4,289z"/>
	<path class="st9" d="M351.8,273.1c1.6,5.2,3.5,7.2,5.9,11.4 M349.3,271.9c0.6,4.2,4,9.8,6.5,13.5"/>
	<path class="st8" d="M354.8,285.8c-3.9-5.9-8.9-13.2-9.3-20.5c0,0,0.3-2.3,1.8-2c10.4,2.3,12.8-5.1,14.7-5.1c1.2,0,1.8-0.2,2.3,0.5
		c3.9,5.3,5.1,13.3,6.4,21l-6.5,2.3l-7.3-12.9c1.6,5.5,2.5,8.9,2.6,14.7L354.8,285.8L354.8,285.8z"/>
	<path class="st8" d="M347.7,289.9c-6.2-10.2-13.6-21.3-13.2-24.6c0.2-1.7,0.2-2.1-0.1-2.1c-3.1-0.6-4.9-1.5-6.3-0.7
		c-1.3,0.8-1.8,3.3-2.6,5.8c0,0.4,2.5,1.6,3.7,2.6c4.1,3.5,11.1,15.2,14.8,21.2L347.7,289.9L347.7,289.9z"/>
	<path class="st9" d="M363.2,268.8c2.2,4.9,2.1,7.7,3.1,12.5 M364.4,266.2c2.7,5.6,2.8,8.8,4.1,14.2 M352.4,272.7
		c1.5,5.2,3.3,7.3,5.7,11.5 M350,271.8c1.6,6,3.5,8.5,6,13.5"/>
	<polygon class="st8" points="346.2,624.8 444.7,624.8 444.7,631.1 346.2,631.1 346.2,624.8 	"/>
	<path class="st13" d="M354.2,624.6c0,0,3.1-2.1,3.9-3.2c0.8-1.1,2.8-2.8,4-3.5c1.3-0.6,2.9-1.2,3.6-1.3c0.7-0.1,1.7-0.1,1.7-0.1
		l57.7,0.2c0,0,3,0.1,4.5,1.4s4.8,5.3,5.5,5.7c0.7,0.4,1.7,1,1.7,1L354.2,624.6L354.2,624.6z"/>
	<path class="st9" d="M221.7,648.4h347.5v6.1H221.7V648.4L221.7,648.4z M226.5,648.4c0,0,1.5-1,1.5-2.7c0-1.7,0.1-6.5,0.1-6.5
		s1.1-2.1,3.3-3.1c2.2-1,2.8-1.2,3.8-1.2c0,0,0.8,0,2.2,0c28,0,318.2,0.1,318.2,0.1s2.4,0.1,3.8,0.8c1.4,0.7,3,2.3,3.3,3.1
		c0.3,0.8,0.3,6.4,0.3,6.4s0.5,1.2,1.3,1.8c0.8,0.6,1,1.2,1,1.2H226.5L226.5,648.4z"/>
	<path class="st14" d="M260.7,630.5H244h-6.7l0,4.4 M296.6,630.8l49.3-0.3 M444.7,630.8l49.7-0.3 M530.6,630.6h23.2l0,4.5"/>
	<path class="st9" d="M385.7,525.7c2.3,3,3.1,3.4,6.4,4.6c-2.4-1.8-1.9-1.5-2-4.5L385.7,525.7L385.7,525.7z M398.6,525.7
		c0.3,2.6,0.5,2.8-1.1,4.7c1.7-0.9,5.3-2.6,5.7-4.7L398.6,525.7L398.6,525.7z"/>
	<path class="st8" d="M365.5,613.8c-12.9-8.8-27.9-25.3-30.7-42.1c-0.2-1.5-0.4-2.9-0.5-4.4c-0.5-12.7,7.1-19.2,16-19.6
		c24-1,57.9-1.6,81.4,0.1c19.2,1.3,24.5,10.9,21.1,25c-1,4.1-2.7,8.6-5.1,13.4c-8.2,16.6-22.4,24.3-26.7,28.2L365.5,613.8
		L365.5,613.8z"/>
	<path class="st13" d="M438.5,599.6c-29.5,0-59,0-88.6,0c4.9,5.3,9.6,9.7,15.5,13.9l56.1,0.6c5.3-4.2,11-8.3,15.7-13.2
		C438,600.2,438.5,599.6,438.5,599.6L438.5,599.6z"/>
	<line class="st9" x1="452.4" y1="573.4" x2="334.7" y2="572.3"/>
	<line class="st14" x1="336.1" y1="577.9" x2="451" y2="578.8"/>
	<path class="st9" d="M336.3,557.1l115.8,1.4 M346.1,595.3l94.8,1.1"/>
	<path class="st13" d="M334.7,561.3h3.2c-1.7,0.2-3.1,2-3.1,4.1c0,1.7,0.9,3.2,2.1,3.8h-2.2V561.3L334.7,561.3z M338.6,561.3h5.8
		c-1.4,0.5-2.5,2.1-2.5,3.9c0,1.8,1,3.4,2.4,3.9h-4.7c1.2-0.6,2.1-2.1,2.1-3.8C341.7,563.2,340.3,561.5,338.6,561.3L338.6,561.3z
		 M346.3,561.3h5.7c-1.5,0.4-2.6,2.1-2.6,4c0,1.8,1,3.3,2.3,3.9h-5.4c1.4-0.5,2.4-2.1,2.4-3.9C348.8,563.3,347.7,561.8,346.3,561.3
		L346.3,561.3z M353.7,561.3h6c-1.6,0.4-2.7,2-2.7,4c0,1.8,0.9,3.3,2.3,3.8H354c1.4-0.6,2.3-2.1,2.3-3.9
		C356.3,563.3,355.2,561.7,353.7,561.3L353.7,561.3z M361.2,561.3h6.2c-1.7,0.2-3.1,2-3.1,4.1c0,1.7,0.9,3.2,2.1,3.8h-4.8
		c1.3-0.6,2.3-2.1,2.3-3.8C363.9,563.3,362.7,561.7,361.2,561.3L361.2,561.3z M368.1,561.3h6.5c-1.6,0.4-2.7,2-2.7,4
		c0,1.8,0.9,3.3,2.3,3.8h-5c1.2-0.6,2.1-2.1,2.1-3.8C371.2,563.2,369.9,561.5,368.1,561.3L368.1,561.3z M376,561.3h5.8
		c-1.5,0.5-2.6,2.1-2.6,4c0,1.8,1,3.3,2.3,3.9h-5c1.3-0.6,2.3-2.1,2.3-3.8C378.8,563.3,377.6,561.7,376,561.3L376,561.3z
		 M383.5,561.3h5.6c-1.5,0.5-2.6,2.1-2.6,4c0,1.8,1,3.3,2.3,3.9h-5.1c1.4-0.6,2.3-2.1,2.3-3.9C386.1,563.3,385,561.7,383.5,561.3
		L383.5,561.3z M390.8,561.3h6.1c-1.6,0.4-2.7,2-2.7,4c0,1.8,0.9,3.3,2.3,3.8h-5.3c1.4-0.6,2.3-2.1,2.3-3.9
		C393.4,563.3,392.3,561.7,390.8,561.3L390.8,561.3z M398.4,561.3h6c-1.6,0.4-2.7,2-2.7,4c0,1.8,0.9,3.3,2.3,3.8h-5
		c1.3-0.6,2.3-2.1,2.3-3.8C401.1,563.3,400,561.7,398.4,561.3L398.4,561.3z M405.8,561.3h6c-1.5,0.5-2.6,2.1-2.6,4
		c0,1.8,1,3.3,2.3,3.9h-5.2c1.3-0.6,2.3-2.1,2.3-3.8C408.6,563.3,407.4,561.7,405.8,561.3L405.8,561.3z M413.5,561.3h5.7
		c-1.6,0.4-2.7,2-2.7,4c0,1.8,0.9,3.3,2.3,3.8h-5c1.4-0.6,2.3-2.1,2.3-3.9C416.1,563.3,415,561.7,413.5,561.3L413.5,561.3z
		 M420.7,561.3h6.2c-1.6,0.3-2.9,2-2.9,4c0,1.7,0.9,3.2,2.2,3.8h-5c1.3-0.6,2.3-2.1,2.3-3.8C423.4,563.3,422.2,561.7,420.7,561.3
		L420.7,561.3z M428,561.3h6c-1.5,0.5-2.6,2.1-2.6,4c0,1.8,1,3.3,2.3,3.9h-5c1.3-0.6,2.2-2.1,2.2-3.8
		C430.9,563.3,429.7,561.6,428,561.3L428,561.3z M435.7,561.3h5.7c-1.4,0.5-2.5,2.1-2.5,3.9c0,1.8,1,3.4,2.4,3.9H436
		c1.4-0.6,2.3-2.1,2.3-3.9C438.3,563.3,437.2,561.7,435.7,561.3L435.7,561.3z M443.3,561.3h5.8c-1.5,0.5-2.6,2.1-2.6,4
		c0,1.8,1,3.3,2.3,3.9h-5.5c1.4-0.5,2.4-2.1,2.4-3.9C445.8,563.3,444.8,561.8,443.3,561.3L443.3,561.3z M450.8,561.3h2.2v2.1
		C452.6,562.3,451.8,561.6,450.8,561.3L450.8,561.3z M453,567.1v2h-1.9C451.9,568.8,452.6,568.1,453,567.1L453,567.1z"/>
	<path class="st8" d="M375,546.4c2.1,0,1.4-5.7,1.4-5.7h34.9c-0.1,3.4,0.5,5.6,1.2,5.6L375,546.4L375,546.4z"/>
	<path class="st8" d="M363.5,540.6l60.5,0.2l0.1-4.3c0-2-2-2.1-3.3-2.1h-54c-2.3,0-3.1,0.8-3.3,3L363.5,540.6L363.5,540.6z"/>
	<path class="st8" d="M390.9,617.1c-0.4,1.5-1.6,4.7-0.3,6.2c1.2,1.4,1.7,1.3,4.2,1.4c2.5,0.1,6.8,0.4,7.5-1.4
		c0.9-2.1-0.1-4.2-1-6.2l-1.7,0c0.6,0.9,2.5,5.2,0.2,5.7c-1.2,0.3-3.4-0.6-5.8,0.1c-0.5,0.2-1.4-0.2-1.4-0.2c-1.5-1.9-0.5-3.9,0-5.7
		L390.9,617.1L390.9,617.1z"/>
	<path class="st8" d="M393.2,617.1c-0.5,1.4-1.2,3.6-0.3,5c0,0,0.4,0.4,0.9,0.3c3.1-1.2,4.9,0,5.5-0.1c0.4-0.1,0.6-0.1,0.7-0.3
		c0.6-1.3-0.2-3.3-0.8-4.9l-2.6-0.1l-0.5,3.5c-0.2-1.2-0.4-2.3-1.1-3.4L393.2,617.1L393.2,617.1z"/>
	<path class="st8" d="M390.1,617.2c-0.5,2.5-1.3,5.3-0.7,5.9c0.3,0.3,0.4,0.4,0.3,0.4c-0.9,0.4-1.4,0.7-1.9,0.7
		c-0.5,0-1.1-0.5-1.7-0.9c-0.1-0.1,0.6-0.5,0.8-0.8c0.8-1,1.3-3.8,1.7-5.3L390.1,617.2L390.1,617.2z"/>
	<path class="st9" d="M398.3,620c0.1-1.1-0.4-2-0.7-3 M399,620.4c0.1-1.3-0.3-2.3-0.6-3.4 M394.2,620.1c-0.2-1.1,0.1-2,0.3-3
		 M393.5,620.5c-0.3-1.3-0.1-2.3,0.1-3.4"/>
	<path class="st8" d="M376.2,616.8c-0.9,1.5-3.3,4.8-2.6,6.3c0.6,1.4,1.1,1.4,3.5,1.5c2.4,0.1,6.3,0.4,7.6-1.4
		c1.6-2.1,1.5-4.2,1.3-6.3l-1.6,0c0.2,0.9,0.5,5.3-1.9,5.8c-1.3,0.3-3-0.7-5.6,0.1c-0.6,0.2-1.3-0.2-1.3-0.2c-0.7-1.9,1-4,2.1-5.8
		L376.2,616.8L376.2,616.8z"/>
	<path class="st8" d="M378.4,616.8c-1,1.5-2.4,3.6-2.2,5.1c0,0,0.2,0.4,0.7,0.3c3.4-1.3,4.7,0,5.3-0.1c0.4-0.1,0.6-0.1,0.8-0.3
		c1-1.3,1-3.3,1.1-4.9l-2.4-0.1l-1.8,3.5c0.2-1.2,0.5-2.3,0.2-3.4L378.4,616.8L378.4,616.8z"/>
	<path class="st8" d="M375.3,616.9c-1.4,2.5-3.2,5.4-2.8,6c0.2,0.3,0.2,0.4,0.1,0.4c-1,0.4-1.5,0.7-2.1,0.7c-0.5,0-0.9-0.5-1.3-0.9
		c0-0.1,0.8-0.5,1.1-0.8c1.2-1,2.7-3.9,3.5-5.4L375.3,616.9L375.3,616.9z"/>
	<path class="st9" d="M382.1,619.8c0.5-1.1,0.4-2,0.4-3.1 M382.7,620.2c0.6-1.3,0.5-2.3,0.6-3.5 M378.2,619.9c0.2-1.1,0.9-2,1.4-3
		 M377.4,620.2c0.2-1.3,0.8-2.3,1.3-3.5"/>
	<path class="st8" d="M406.7,617.3c0,1.5-0.4,4.8,1.1,6.3c1.5,1.4,2,1.3,4.5,1.3c2.5,0,6.8,0.2,7-1.6c0.3-2.1-1.1-4.2-2.5-6.2
		l-1.7,0c0.8,0.9,3.7,5.2,1.6,5.8c-1.1,0.3-3.5-0.6-5.7,0.2c-0.5,0.2-1.5-0.1-1.5-0.1c-1.9-1.9-1.4-4-1.3-5.7L406.7,617.3
		L406.7,617.3z"/>
	<path class="st8" d="M408.9,617.2c-0.1,1.5-0.3,3.6,0.9,5.1c0,0,0.5,0.4,0.9,0.2c2.8-1.3,4.8-0.1,5.4-0.3c0.4-0.1,0.6-0.1,0.6-0.3
		c0.2-1.3-1-3.3-1.9-4.9l-2.5,0l0.3,3.5c-0.5-1.2-0.9-2.3-1.9-3.4L408.9,617.2L408.9,617.2z"/>
	<path class="st8" d="M405.9,617.4c0.1,2.5,0,5.4,0.7,6c0.4,0.3,0.4,0.4,0.4,0.4c-0.8,0.4-1.2,0.7-1.7,0.7c-0.5,0-1.2-0.5-1.9-0.9
		c-0.1-0.1,0.5-0.5,0.6-0.8c0.6-1,0.4-3.9,0.4-5.4L405.9,617.4L405.9,617.4z"/>
	<path class="st9" d="M414.6,620.1c-0.2-1.1-0.8-2-1.4-3 M415.5,620.5c-0.2-1.3-0.9-2.3-1.4-3.4 M410.6,620.3c-0.5-1.1-0.3-2-0.4-3
		 M410.1,620.6c-0.6-1.3-0.6-2.3-0.7-3.4"/>
	<path class="st8" d="M418.7,617.2c1.4,2.4,2.9,5.1,3.9,5.6c0.5,0.3,0.6,0.4,0.6,0.4c-0.5,0.4-0.6,0.7-1.2,0.7
		c-0.5,0-1.3-0.4-2.2-0.8c-0.1-0.1,0.1-0.5,0.1-0.8c0-1-1.7-3.7-2.5-5.1L418.7,617.2L418.7,617.2z"/>
	<path class="st8" d="M419.7,617.2c0.6,1.5,1.6,4.5,3.7,6c2,1.4,2.4,1.4,4.7,1.5c2.3,0.2,6.3,0.6,5.8-1.1c-0.6-2-2.7-4-4.9-6
		l-1.5-0.1c1.1,0.9,5.6,5.1,3.9,5.5c-0.9,0.2-3.4-0.7-5.1-0.1c-0.4,0.1-1.4-0.2-1.4-0.2c-2.5-1.9-3-3.8-3.6-5.5L419.7,617.2
		L419.7,617.2z"/>
	<path class="st8" d="M421.7,617.3c0.5,1.4,1.3,3.4,2.9,4.8c0,0,0.7,0.4,0.9,0.3c2-1.1,4.4,0.2,4.9,0.1c0.3-0.1,0.5-0.1,0.4-0.2
		c-0.4-1.3-2.3-3.2-3.8-4.7l-2.3-0.1l1.7,3.3c-1-1.1-1.8-2.2-3.2-3.3L421.7,617.3L421.7,617.3z"/>
	<path class="st9" d="M428.2,620.3c-0.7-1.1-1.6-2-2.6-2.9 M429.1,620.7c-0.7-1.3-1.8-2.2-2.8-3.3 M424.6,620.2
		c-0.9-1.1-1.2-1.9-1.6-2.9 M424.2,620.6c-1.1-1.3-1.5-2.2-2.1-3.3"/>
	<path class="st8" d="M372.4,616.9c-0.7,1.4-1.7,4.5-3.8,5.9c-2,1.4-2.4,1.3-4.7,1.4c-2.3,0.1-6.3,0.5-5.8-1.2c0.6-2,2.8-4,5-5.9
		l1.5,0c-1.1,0.9-5.7,5-4,5.4c0.9,0.2,3.4-0.7,5.1,0c0.4,0.1,1.4-0.2,1.4-0.2c2.6-1.8,3.1-3.8,3.7-5.4L372.4,616.9L372.4,616.9z"/>
	<path class="st8" d="M370.4,616.9c-0.5,1.4-1.3,3.4-3,4.8c0,0-0.7,0.4-0.9,0.3c-2-1.1-4.4,0.1-4.9,0c-0.3-0.1-0.5-0.1-0.4-0.3
		c0.4-1.3,2.3-3.1,3.9-4.6l2.3-0.1l-1.8,3.3c1-1.1,1.8-2.1,3.2-3.2L370.4,616.9L370.4,616.9z"/>
	<path class="st9" d="M363.9,619.8c0.7-1.1,1.7-1.9,2.6-2.9 M363,620.2c0.8-1.2,1.8-2.2,2.8-3.2 M367.5,619.9
		c0.9-1.1,1.2-1.9,1.7-2.9 M367.9,620.2c1.1-1.2,1.6-2.1,2.2-3.2"/>
	<path class="st8" d="M373.9,534.1c0.9-0.9,1.6-2.7,0.9-3.3l-8-0.3l-3.3,0.4l-0.6,6.4c0,0,0.4-4.2-0.9-4.7c-1.3-0.5-1-0.6-1-0.6
		l-1.1,4.5c-0.4-1.1-0.4-4.3-1.4-4.2c-1.3,0.2-3.8,2-3.8,2s-3.5,2.3-5,3.6c-1.5,1.3-7,7.4-7,7.4l-4.5,5.8c0,0,3.9-5.3,4.2-6.9
		c0.4-1.6,0.1-1.7,0.1-1.7s-4.9,2.6-5.7,3.3c-3.1,2.8-4,4.4-3.6,10.1c-1.3-4.1,1.8-10,1.8-10l-1.8,0.2c1.9-0.6,5.8-2.2,7.4-3.3
		c4.2-2.6,7.3-5.7,11.2-8.5c2.2-1.6,4.3-2.7,6.7-3.9c0,0,5-1.8,6.4-1.8c0.6,0,1.8,0.1,2.9,0.2c1.5,0.1,2.9,0.3,2.9,0.3
		c0.5,0.1,3.2,0.7,3.1,1.4c-0.1,0.7,0.1-0.9-1.3-1.3s-4.2-0.6-4.7-0.6c-0.4-0.1-1.1-0.1-1.9-0.1c-3.7-0.3-6.6,2-9.1,2
		c-0.3,0-2.2,0.3-3.4,0.9c-1.2,0.5-2.1,1.3-4,2.2c-1.9,0.9-6.2,2.2-6.2,2.2l-3.8,0.6l-6.9,0.1c0,0-1,0.1-5.8-1.1
		c-4.9-1.2-7.8-1.9-11.3-3.6c-3.5-1.7-7.8-3.5-7.8-3.5s-8.9-5.9-10.3-7c-1.4-1.1-21.2-16.9-22.1-17.8c-0.9-0.9-12.1-10.4-12.1-10.4
		s11.4,9.4,12,9.7c0.6,0.3,2.2,0.8,2.9,0.9c0.7,0.1,4.3,1.4,5.7,2.2c1.4,0.8,4.2,3,5,3.9c0.8,0.8,2.6,3.1,4.3,4.9
		c5.9,5.9,20.4,14.1,33.7,15.6c2.6,0.3,14.2-0.1,14.2-0.1c8.5-0.4,10.3-3,16.1-4.5c-7.7-1-14.9-0.9-22.7-1l-10.2,0.2l3.6-2.1
		l-13.7-0.1c0,0,8.9-0.8,8.9-0.4c0,0.4,1.9-0.5,1.9-0.5s-7-2-7.8-3c-0.8-0.9,2.1,0.2,2.1,0.2s2.1-0.2,3.2-0.1
		c1.1,0.2,4.5,1.6,4.5,1.6l3,1.9c0,0-3.4-3.6-2.8-3.3c0.6,0.3,3.7,1.8,4.5,2c0.8,0.2,5.8,1.2,5.8,1.2l2.2,0.2c0,0-5.6-3.9-8-5.2
		c-2.4-1.4-12.2-7.1-15.1-8.6c-2.9-1.4-12.9-8.8-14.8-10.8c-1.9-2-7.2-8.6-7.6-8.7c-0.4-0.2-10.2-9.5-10.2-9.5s12.1,10.9,13.5,12.2
		c1.4,1.3,6.9,5.5,9.9,7.7c3,2.2,5.2,3.4,6.6,3.9c1.4,0.5,4,1.9,5.5,3c1.5,1.1,7,3.7,9.9,5.5c2.9,1.8,6.1,3.8,9,4.8c3,1,7,2.8,9.2,3
		s6.5,0.3,6.5,0.3s9.9,1.8,14.4,3c4.5,1.2,7.6,1.6,10,2.5c2.4,0.9,4.3,1,7.3,3.1c3,2.1,3.9,3.4,5.2,3.9c1.4,0.5,1.9,1.6,3.2,1.6
		c1.3,0,3.6,0,3.6,0s2.9-1.8,4.5-3.1c1.7-1.3,3-2.8,4.4-3.6c1.4-0.8,4.7-1.7,5.7-2.1c1-0.5,7.5-1.6,9.9-2c2.4-0.5,6.4-1.1,7.7-1.4
		c1.4-0.2,5.6-1.7,6.9-1.7c1.3,0,5.5-0.2,6.9-0.5c1.4-0.3,6.8-1.4,9.9-3.1c3.1-1.7,8.3-4.7,8.3-4.7l7.5-4.5c0,0,5.9-4,8.3-4.7
		c2.3-0.7,6.5-4,6.5-4s3.5-2.6,5.5-4.2c2-1.7,6.6-5.4,6.6-5.4l10.8-9.2c0,0-10.6,9.2-12,11.3c-1.4,2-4.3,5.2-6,6.4
		c-1.7,1.2-5.3,4.7-7.9,6.6c-2.6,1.9-6.3,4-8.6,5.2c-2.3,1.1-6,2.5-8.3,4.1c-2.3,1.6-6.7,4.4-6.7,4.4s-4.8,3.5-5.5,4
		c-0.7,0.5-1.8,1.1-1.8,1.1s5.1-0.2,6.7-0.8c1.6-0.6,5.2-2.3,5.2-2.3l1.6-0.8l-2.6,3.3c0,0,2.3-1.7,3.6-2s3.6-1.1,3.6-1.1
		s1.9-0.7,3-0.8c1.1-0.1,2.2-0.5,2.2-0.5s-2.7,1.8-3.7,2.2c-1,0.4-3.5,1.2-3.5,1.2l3.7,0.3c0,0,7.4-0.2,8.3-0.5c1-0.3-3,1.6-5,1.4
		c-2-0.2-7.3-0.2-7.3-0.2l-3.1,0.2l3.6,1.7c-6.8-1.2-17.5-0.1-25-0.1c-1.3,0-8.9,0.4-8.9,0.4c3.7,1.7,10.9,4.8,14.8,4.8
		c5.7,0,17,0.7,22.1-0.2c7.2-1.3,21.1-8.8,25.6-12.6c1.4-1.2,3.2-2.5,4.1-3.8c0.9-1.3,2.7-3.6,4.3-5c1.6-1.4,3.6-2.6,5.8-3.2
		c2.1-0.6,4.6-1.2,5.7-1.9c1.1-0.7,12.4-9.9,12.4-9.9s-12.3,10.2-14.5,11.9c-2.2,1.7-8.6,7.1-9.9,8c-1.4,0.8-7.2,5.9-8.1,6.7
		c-7.4,6.8-20.2,12.2-29.6,15.5c0,0-7,1.2-9.5,1c-2.5-0.2-8.4-0.2-11.4-1.6c-3-1.4-7.6-3.6-7.6-3.6l-5-0.9l-4.2-1.1l-7.7-0.2
		l-1.4,0.8c0,0,2.5-0.4,4.1-0.4c1.6,0,5,0.1,5,0.1l4.3,1.1c0,0,2-0.2,4.9,1.9c4.9,3.5,8.4,7.1,13.7,10.5c1.9,1.2,6.3,3,6.3,3
		l2.1,0.7c0,0-4.2-0.2-3.9-0.8c0.3-0.6,2.2,3.3,2.2,3.3l1.4,6.4c0,0-2.1-6.3-1.8-6.4c0.3-0.2-2.4-3.7-2.4-3.7s-5.6-2.7-5.4-3
		c0.2-0.3-0.2,1.3-0.2,1.9c0,0.6,3.9,6.9,3.9,6.9s-3.6-6.1-4.4-6.7c-4.1-3.5-9-8.9-13.7-11.4c-0.6-0.3-1.2-0.6-2-0.6
		c-2.3,0-1.4,3.6-1.3,5.1l-1.1-3.8c0,0-0.7-2.9-1-1.3c-0.3,1.7-1,5.6-1,5.6s0.2-4.8-0.2-5.8c-0.4-1-1.1-1.4-1.1-1.4h-9.1
		c0,0-1.9,0-1.9,0.7c0,0.7,0.2,1.4,1.1,1.9c0.9,0.5,1.4,1,1.4,1L373.9,534.1L373.9,534.1z"/>
	<path class="st8" d="M334.2,545.9c-2.3,2.3-2.5,7.1-8.1,6.8l-3.3-0.2l-3.9,0.3c-0.1,0,4-0.2,4.4-0.8c1.2-1.8,1.9-4.8,3.9-6.1
		C328.3,545.3,332.3,545.5,334.2,545.9L334.2,545.9z"/>
	<path class="st8" d="M333.1,552.7c0,0-2.3,0.6-3.6,2.1c-1.4,1.5-2.9,3.1-3.1,4.4c-0.2,1.2-0.5,2-0.8,2.7c-0.3,0.7-1.5,1.6-1.5,1.6
		s1.6-0.5,3.4-1.5c1.8-0.9,3.4-2.3,3.9-3.1c0.5-0.9,1.2-1.5,1.2-3.7C332.4,552.9,333.1,552.7,333.1,552.7L333.1,552.7z"/>
	<path class="st8" d="M338.7,551.1c0,0-1,2-2.2,3.4c-1.2,1.5-1,4.4-1,4.4s0.9,1.9,1.6,2.9c0.7,1,1,2.6,1,2.6s1.7-1.1,2.6-2.6
		c0.9-1.5,1.2-3.6,1.1-4.5c-0.1-0.9-0.9-1.8-1.7-3.1C339.4,553,338.7,551.1,338.7,551.1L338.7,551.1z"/>
	<path class="st8" d="M333.4,561.4c0,0-0.4,2.5,0.2,3.4c0.6,0.9,0.4,2.9,0.4,2.9s-0.4,1.9-1.5,3.1c-1,1.2-2.4,1.6-2.9,2.1
		c-0.5,0.5-1.7,2-1.7,2l-1.2,1.3c0,0,1.9-1.7,1.9-3.3c0-1.6-1.4-4.2-1-5.7c0.4-1.5,0.6-2.2,0.6-2.2s1.5-1,3.3-2.3
		C333.4,561.4,333.4,561.4,333.4,561.4L333.4,561.4z"/>
	<path class="st8" d="M337.7,566.6c0,0,1.5,2.2,1.4,3.6c-0.1,1.5,0.3,3-0.9,4.2c-1.2,1.2-3.2,2-3.6,2.6c-0.4,0.6-1.2-1.2-1.2-2.2
		s-0.8-2.2-0.1-4.3c0.7-2.1,1.5-2.7,1.5-2.7s1-0.4,1.7-0.9c0.7-0.5,0.9-1.2,0.9-1.2L337.7,566.6L337.7,566.6z"/>
	<path class="st8" d="M330.8,591.1c0,0,0.8-0.7,1.6-2.3c0.8-1.5,2.6-4.3,2.4-5.4c-0.1-1.1-0.4-2.6-0.4-2.6s-0.5-1.6-1.4-2.4
		c-0.9-0.8-0.9-1.1-0.9-1.1s-0.5,1.1-1.2,2.3c-0.7,1.2-0.9,2.3-0.9,2.3l0.3,4.4c0,0,0.2,1.2,0.6,1.9
		C331.4,588.9,330.8,591.1,330.8,591.1L330.8,591.1z"/>
	<path class="st8" d="M341,580.8l0.4,2c0,0,1.8,1.7,2.3,3c0.4,1.3,0.6,3.1-0.3,4.7c-0.9,1.5-2.2,2-2.3,3c-0.1,1-0.8,2.6-0.8,2.6
		s0.5-1.9,0-3.1c-0.5-1.2-2.6-3-2.6-4.4c0-1.5,0-3.2,0-3.2s0.3-1.4,1.9-2.5C341.3,581.8,341,580.8,341,580.8L341,580.8z"/>
	<path class="st8" d="M336,588.1l0.1,3.1c0,0,1.2,2,1,3.4c-0.1,1.5-0.4,2.5-0.9,3.3c-0.6,0.8-3,2-3,2l-3.5,3.9c0,0,2.9-2.4,2.3-3.7
		c-0.7-1.3-1.2-5.2-1-6.4c0.2-1.2,1.9-2,3.3-3.4C335.7,588.9,336,588.1,336,588.1L336,588.1z"/>
	<path class="st8" d="M340.2,597.7c0,0,3.6,0.7,4.9,1c1.3,0.4,2.9,1.2,3.6,2.5c0.7,1.2,0.4,4.4,0.4,4.4l2.3,4.2c0,0-1.3-3.6-3.1-3.7
		c-1.8-0.1-3.9-0.4-5.2-1.5c-1.3-1.1-2.1-2-2.4-3.4C340.3,599.7,340.2,597.7,340.2,597.7L340.2,597.7z"/>
	<path class="st8" d="M336.7,603.2c0,0-1,1.1-1.2,2.1c-0.2,1,0.2,3.3-0.3,4.4c-0.5,1.1-1.8,2.6-2.9,3.1c-1.1,0.4-3.9,0.7-3.9,0.7
		l-4.1,2.1c0,0,3.7-1.2,3.9-3.1c0.1-1.9-0.4-3.6,1-5.4s3.1-2.6,3.1-2.6l3-0.7L336.7,603.2L336.7,603.2z"/>
	<path class="st8" d="M339,606.7c0,0,0.9,1.2,1.5,2.4c0.6,1.2,0.5,4.2,0.5,4.2s-0.7,2-1.2,3.3c-0.6,1.2-1.8,3-1.8,3s-0.6-2-1-3.6
		c-0.4-1.6-0.3-5.5-0.3-5.5s0-1.6,1.3-2.5C339.2,607,339,606.7,339,606.7L339,606.7z"/>
	<path class="st8" d="M327.2,616.1c0,0-0.4,2.6-1.4,4.1s-4.5,3.5-4.5,3.5l-5,1.6c0,0,1.1-1,2.7-3.7c1.6-2.7,3.5-3.6,3.5-3.6
		s2-1.6,2.9-1.6S327.2,616.1,327.2,616.1L327.2,616.1z"/>
	<path class="st8" d="M334.9,614.5c0,0-0.1,2,0.9,3c0.9,0.9,1.6,2,1.6,3.6c0,1.7-0.1,3.1-0.1,3.1s-2.7,1.5-2.8,2.6
		c-0.1,1-2,4.1-2,4.1s1.9-2.9,1.4-3.8c-0.5-0.9-1.6-2.4-1.9-3.5c-0.4-1.1-0.8-3.7-0.8-3.7s0.1-0.9,1.1-2c0.9-1.1,1.9-1.9,2.1-2.6
		S334.9,614.5,334.9,614.5L334.9,614.5z"/>
	<path class="st8" d="M361.9,536.7c0.1,3.8-0.2,4.9,2.4,8.2c0.9,1.2,2,1.5,2.2,2.3c0.2,0.8,0.3,1.5,0.3,1.5
		C367.6,544.4,367.7,537.4,361.9,536.7L361.9,536.7z"/>
	<path class="st8" d="M361.2,536.7c0,2.6-0.7,9.2-4.5,9.2c-1,0-4.2,1.7-4.2,1.7s1.7-0.4,1.8-2.5
		C354.7,538.8,354.2,538.1,361.2,536.7L361.2,536.7z"/>
	<path class="st8" d="M362.8,544.6c-0.7,2.5-0.9,6.7-2.6,8.3c-1.2,1.2-3.2,1.1-4.3,1.6c-1.1,0.5-3.1,2.1-3.4,2.3
		c-0.4,0.2,2.8-1.6,2.6-3.6c-0.7-6.6,2.7-7.2,5.9-8.2C361.8,544.9,362.8,544.6,362.8,544.6L362.8,544.6z"/>
	<path class="st8" d="M456.6,545.9c2.3,2.3,2.5,7.1,8.1,6.8l3.3-0.2l3.9,0.3c0.1,0-4-0.2-4.4-0.8c-1.2-1.8-1.9-4.8-3.9-6.1
		C462.5,545.3,458.6,545.5,456.6,545.9L456.6,545.9z"/>
	<path class="st8" d="M457.8,552.7c0,0,2.3,0.6,3.6,2.1c1.4,1.5,2.9,3.1,3.1,4.4c0.2,1.2,0.5,2,0.8,2.7c0.3,0.7,1.5,1.6,1.5,1.6
		s-1.6-0.5-3.4-1.5c-1.8-0.9-3.4-2.3-3.9-3.1c-0.5-0.9-1.2-1.5-1.2-3.7C458.5,552.9,457.8,552.7,457.8,552.7L457.8,552.7z"/>
	<path class="st8" d="M452.2,551.1c0,0,1,2,2.2,3.4c1.2,1.5,1,4.4,1,4.4s-0.9,1.9-1.6,2.9c-0.7,1-1,2.6-1,2.6s-1.7-1.1-2.6-2.6
		c-0.9-1.5-1.2-3.6-1.1-4.5c0.1-0.9,0.9-1.8,1.7-3.1C451.5,553,452.2,551.1,452.2,551.1L452.2,551.1z"/>
	<path class="st8" d="M457.4,561.4c0,0,0.4,2.5-0.2,3.4c-0.6,0.9-0.4,2.9-0.4,2.9s0.4,1.9,1.5,3.1c1,1.2,2.4,1.6,2.9,2.1
		c0.5,0.5,1.7,2,1.7,2l1.2,1.3c0,0-1.9-1.7-1.9-3.3c0-1.6,1.4-4.2,1-5.7c-0.4-1.5-0.6-2.2-0.6-2.2s-1.5-1-3.3-2.3
		C457.4,561.4,457.4,561.4,457.4,561.4L457.4,561.4z"/>
	<path class="st8" d="M453.2,566.6c0,0-1.5,2.2-1.4,3.6c0.1,1.5-0.3,3,0.9,4.2c1.2,1.2,3.2,2,3.6,2.6c0.4,0.6,1.2-1.2,1.2-2.2
		c0-1,0.8-2.3,0.1-4.3s-1.5-2.7-1.5-2.7s-1-0.4-1.7-0.9c-0.7-0.5-0.9-1.2-0.9-1.2L453.2,566.6L453.2,566.6z"/>
	<path class="st8" d="M460,591.1c0,0-0.8-0.7-1.6-2.3c-0.8-1.5-2.6-4.3-2.4-5.4c0.1-1.1,0.4-2.6,0.4-2.6s0.5-1.6,1.4-2.4
		c0.9-0.8,0.9-1.1,0.9-1.1s0.5,1.1,1.2,2.3c0.7,1.2,0.9,2.3,0.9,2.3l-0.3,4.4c0,0-0.2,1.2-0.6,1.9C459.5,588.9,460,591.1,460,591.1
		L460,591.1z"/>
	<path class="st8" d="M449.8,580.8l-0.4,2c0,0-1.8,1.7-2.3,3c-0.4,1.3-0.6,3.1,0.3,4.7c0.9,1.5,2.2,2,2.3,3c0.1,1,0.8,2.6,0.8,2.6
		s-0.5-1.9,0-3.1c0.5-1.2,2.6-3,2.6-4.4c0-1.5,0-3.2,0-3.2s-0.3-1.4-1.9-2.5C449.6,581.8,449.8,580.8,449.8,580.8L449.8,580.8z"/>
	<path class="st8" d="M454.9,588.1l-0.1,3.1c0,0-1.2,2-1,3.4c0.1,1.5,0.4,2.5,0.9,3.3c0.6,0.8,3,2,3,2l3.5,3.9c0,0-2.9-2.4-2.3-3.7
		c0.7-1.3,1.2-5.2,1-6.4c-0.2-1.2-1.9-2-3.3-3.4C455.2,588.9,454.9,588.1,454.9,588.1L454.9,588.1z"/>
	<path class="st8" d="M450.7,597.7c0,0-3.6,0.7-4.9,1c-1.3,0.4-2.9,1.2-3.6,2.5c-0.7,1.2-0.4,4.4-0.4,4.4l-2.3,4.2
		c0,0,1.3-3.6,3.1-3.7c1.8-0.1,3.9-0.4,5.2-1.5c1.3-1.1,2.1-2,2.4-3.4C450.6,599.7,450.7,597.7,450.7,597.7L450.7,597.7z"/>
	<path class="st8" d="M454.1,603.2c0,0,1,1.1,1.2,2.1s-0.2,3.3,0.3,4.4c0.5,1.1,1.8,2.6,2.9,3.1c1.1,0.4,3.9,0.7,3.9,0.7l4.1,2.1
		c0,0-3.7-1.2-3.9-3.1c-0.1-1.9,0.4-3.6-1-5.4c-1.4-1.8-3.1-2.6-3.1-2.6l-3-0.7L454.1,603.2L454.1,603.2z"/>
	<path class="st8" d="M451.9,606.7c0,0-0.9,1.2-1.5,2.4c-0.6,1.2-0.5,4.2-0.5,4.2s0.7,2,1.2,3.3c0.6,1.2,1.8,3,1.8,3s0.6-2,1-3.6
		c0.4-1.6,0.3-5.5,0.3-5.5s0-1.6-1.3-2.5C451.6,607,451.9,606.7,451.9,606.7L451.9,606.7z"/>
	<path class="st8" d="M463.7,616.1c0,0,0.4,2.6,1.4,4.1c0.9,1.5,4.5,3.5,4.5,3.5l5,1.6c0,0-1.1-1-2.7-3.7c-1.6-2.7-3.5-3.6-3.5-3.6
		s-2-1.6-2.9-1.6C464.6,616.3,463.7,616.1,463.7,616.1L463.7,616.1z"/>
	<path class="st8" d="M455.9,614.5c0,0,0.1,2-0.9,3c-0.9,0.9-1.6,2-1.6,3.6s0.1,3.1,0.1,3.1s2.7,1.5,2.8,2.6c0.1,1,2,4.1,2,4.1
		s-1.9-2.9-1.4-3.8c0.5-0.9,1.6-2.4,1.9-3.5c0.4-1.1,0.8-3.7,0.8-3.7s-0.1-0.9-1.1-2c-0.9-1.1-1.9-1.9-2.1-2.6
		C456.3,614.5,455.9,614.5,455.9,614.5L455.9,614.5z"/>
	<path class="st8" d="M429,536.7c-0.1,3.8,0.2,4.9-2.4,8.2c-0.9,1.2-2,1.5-2.2,2.3c-0.2,0.8-0.3,1.5-0.3,1.5
		C423.3,544.4,423.1,537.4,429,536.7L429,536.7z"/>
	<path class="st8" d="M429.7,536.7c0,2.6,0.7,9.2,4.5,9.2c1,0,4.2,1.7,4.2,1.7s-1.7-0.4-1.8-2.5
		C436.2,538.8,436.7,538.1,429.7,536.7L429.7,536.7z"/>
	<path class="st8" d="M428.1,544.6c0.7,2.5,0.9,6.7,2.6,8.3c1.2,1.2,3.2,1.1,4.3,1.6c1.1,0.5,3.1,2.1,3.4,2.3
		c0.4,0.2-2.8-1.6-2.6-3.6c0.7-6.6-2.7-7.2-5.9-8.2C429.1,544.9,428.1,544.6,428.1,544.6L428.1,544.6z"/>
	<path class="st8" d="M327.3,519.7c0,0-4.5-0.8-6.7-3c-2.1-2.3-3.6-5.3-3.6-5.3s4.9,0.5,5.8,1.2c0.9,0.8,3.3,1.7,3.9,4.4
		C327.3,519.7,327.3,519.7,327.3,519.7L327.3,519.7z"/>
	<path class="st8" d="M317.2,518c0,0-6.4-1.8-7.6-3.3s-2.7-4.7-2.7-4.7s4.9,0.2,6.4,1.7c1.5,1.5,3.3,4.4,3.3,4.4L317.2,518
		L317.2,518z"/>
	<path class="st8" d="M311.9,521.3c0,0-0.8-2.8-2-4.4c-1.2-1.6-2.7-2.4-2.7-2.4l-6-0.3l0.5,3.6c0,0,1,2,3,2.6c2,0.6,5.7,0.3,5.7,0.3
		L311.9,521.3L311.9,521.3z"/>
	<path class="st8" d="M309.4,509.1c0,0-1.1-2.7-2.9-4.4c-1.7-1.7-3.8-3-3.8-3l-3.8-0.1l0.5,2c0,0,2.2,3.1,4.2,3.9
		C305.6,508.4,309.4,509.1,309.4,509.1L309.4,509.1z"/>
	<path class="st8" d="M292.5,503.6l3.6,0.2c0,0,2.3,0.9,4.1,3c1.8,2.1,2.1,4.3,2.7,5.2c0.6,0.8-0.5-0.8-1.7-1.1
		c-1.2-0.2-4.6-2.5-4.7-1.8c-0.1,0.7-1.7-1.4-2.7-2.6C293,505.3,292.5,503.6,292.5,503.6L292.5,503.6z"/>
	<path class="st8" d="M291.2,508.2c0,0-0.5-3.7-0.8-5.2c-0.3-1.5-2-3-3.1-3.6c-1.1-0.6-4.2-0.8-5-1.6c-0.8-0.8-1.4-3.6-1.4-3.6
		s1.4,3.6,1.4,5.1c0,1.4,0.2,3.4,0.2,3.4s0.2,1.4,2.5,2.6c2.3,1.1,3.1,1,3.9,1.4C289.7,507.2,291.2,508.2,291.2,508.2L291.2,508.2z"
		/>
	<path class="st8" d="M294.2,499.1L294,493c0,0-2.2-2.5-4.2-3.1c-2-0.6-4.2-1.4-4.2-1.4l-1.3-3.5c0,0,1.2,3.3,1.4,5.9
		c0.2,2.6-0.1,3.1,0.7,3.9c0.8,0.8,3.2,2.4,4.4,2.7c1.2,0.3,2.5,1.3,2.5,1.3L294.2,499.1L294.2,499.1z"/>
	<path class="st8" d="M283.7,487.4l-0.8-5.9c0,0-1.7-2.7-4.3-3.4c-2.6-0.7-3.6-0.7-3.6-0.7l-1.7-4.2c0,0,1.6,4.7,1.8,6.2
		c0.2,1.5,0.2,3.3,0.2,3.3s0.6,2,1.7,2.3c1.1,0.3,2.3,0.6,3.3,0.9c1,0.3,2.5,1.3,2.5,1.3L283.7,487.4L283.7,487.4z"/>
	<path class="st8" d="M279.8,491.6l-0.8-3.9c0,0-0.4-1.8-2.3-3c-2-1.2-3-1.4-3-1.4l-3.4-0.5l-2-3.6c0,0,2.5,3.9,2.5,5.2
		c0,1.2,0.2,3,0.2,3s1,2.2,2.9,2.9c1.9,0.7,4.5,0.8,4.5,0.8L279.8,491.6L279.8,491.6z"/>
	<path class="st8" d="M271,493.1c0,0-0.4-4.9-1.5-6.1c-1.1-1.2-3-2.7-4.3-2.7c-1.3,0-4.4-0.8-4.4-0.8l-1.7-3c0,0,2.1,3.6,2.1,5.5
		c0,1.8,0,2.7,0,2.7s2.3,2.3,3.9,2.7c1.7,0.4,3.9,0.7,3.9,0.7L271,493.1L271,493.1z"/>
	<path class="st8" d="M256.7,473.1l4.4,0.5c0,0,2.7,0.9,3.9,3c1.3,2.1,3.1,5.5,3.1,5.5s-1.1-1.4-2.5-1.7c-1.4-0.3-4.1-0.2-5.3-1.8
		c-1.2-1.6-3.3-4.2-3.3-4.2L256.7,473.1L256.7,473.1z"/>
	<path class="st8" d="M269.6,477.6l-0.1-6c0,0-1.1-3.9-2.6-4.8c-1.4-0.9-3.3-1.1-3.4-1.4c-0.2-0.4-0.2-1.1-0.2-1.1l-0.1,4.9
		c0,0,1.3,2.9,2.5,4.2c1.2,1.3,2.9,3,3.3,3C269.5,476.3,269.6,477.6,269.6,477.6L269.6,477.6z"/>
	<path class="st8" d="M260.9,471.6c0,0,0.5-5.2,0-6.4c-0.5-1.2-2.9-4-3.9-4.9c-1-0.8-1.4-1.5-1.4-1.5l0.2,6.2c0,0,1.1,2.3,2.5,3.6
		C259.8,470,260.9,471.6,260.9,471.6L260.9,471.6z"/>
	<path class="st8" d="M252.7,469.4l0.1-7.5c0,0-2.3-2.3-4.2-3c-1.9-0.7-3.2-1.1-3.3-2.6c-0.1-1.4,0.1,5.2,0.1,5.2s0,2.9,1.1,3.9
		c1.1,1.1,4.4,2.9,4.4,2.9L252.7,469.4L252.7,469.4z"/>
	<path class="st8" d="M254.2,460.2c0,0,0.4-5.2-0.2-6.7c-0.6-1.4-3.5-3.5-4-4.4c-0.5-0.9-0.2-2.9-0.2-2.9s-1.2,3.2-1.2,4.4
		c0,1.2,0.4,4.9,1.2,5.5c0.8,0.6,3,2.8,3,2.8L254.2,460.2L254.2,460.2z"/>
	<path class="st8" d="M261.7,458.7c0,0-0.4-6.1-1-7.7c-0.6-1.6-2.9-4.2-4-4.5c-1.1-0.4-1.9-1.7-1.9-1.7l0.5,4.4c0,0,1.4,4.2,2.5,5.1
		c1.1,0.8,2,1.4,2,1.4s0.5,1,1.2,2C261.7,458.7,261.7,458.7,261.7,458.7L261.7,458.7z"/>
	<path class="st8" d="M245,459.5l0.1-7.5c0,0-2.3-2.3-4.2-3c-1.9-0.7-3.2-1.1-3.3-2.6c-0.1-1.4,0.1,5.2,0.1,5.2s0,2.9,1.1,3.9
		c1.1,1.1,4.4,2.9,4.4,2.9L245,459.5L245,459.5z"/>
	<path class="st8" d="M249.9,447.9c0,0-0.7-5-1.5-6.3s-3.2-3.4-4.4-3.7c-1.2-0.3-2.1-1.4-2.1-1.4l0.7,3.6c0,0,1.7,3.5,2.9,4.2
		c1.2,0.7,2.2,1.2,2.2,1.2s0.6,0.8,1.4,1.6C249.9,447.9,249.9,447.9,249.9,447.9L249.9,447.9z"/>
	<path class="st8" d="M242,446.7c0,0-0.7-5-1.5-6.3c-0.7-1.3-3.2-3.4-4.4-3.7c-1.2-0.3-2.1-1.4-2.1-1.4l0.7,3.6c0,0,1.7,3.5,2.9,4.2
		c1.2,0.7,2.2,1.2,2.2,1.2s0.6,0.8,1.4,1.6C242,446.7,242,446.7,242,446.7L242,446.7z"/>
	<path class="st8" d="M249.2,440.3c1-2.5,2.6-5.5,2.5-7.1c-0.1-1.5-1.5-2.9-3.1-4.2c-1.6-1.3-2.6-2.1-2.2-3.5
		c0.4-1.4-1.6,4.9-1.6,4.9s-0.9,2.7-0.3,4.1c0.7,1.3,3.2,4.1,3.2,4.1L249.2,440.3L249.2,440.3z"/>
	<path class="st8" d="M242.3,428.6c1.4-2.2,3.5-5,3.7-6.5c0.2-1.5-0.9-3.1-2.3-4.7c-1.3-1.5-2.2-2.5-1.6-3.8
		c0.6-1.3-2.5,4.5-2.5,4.5s-1.4,2.5-1,4c0.4,1.4,2.4,4.7,2.4,4.7L242.3,428.6L242.3,428.6z"/>
	<path class="st8" d="M235,435.4c0.9-2.5,2.3-5.7,2.1-7.2c-0.1-1.5-1.6-2.8-3.3-4c-1.6-1.2-2.8-2-2.4-3.4c0.2-0.9-2.3,6.2-1.4,9.1
		C230.9,431.5,231.8,433,235,435.4L235,435.4z"/>
	<path class="st8" d="M237.7,426.4c0.9-2.5,2.3-5.7,2.1-7.2c-0.1-1.5-1.6-2.8-3.3-4c-1.6-1.2-2.8-2-2.4-3.4c0.2-0.9-2.3,6.2-1.4,9.1
		C233.7,422.5,234.6,423.9,237.7,426.4L237.7,426.4z"/>
	<path class="st8" d="M233.9,413.7c0.9-2.5,2.3-5.7,2.1-7.2c-0.1-1.5-1.6-2.8-3.3-4c-1.6-1.2-2.8-2-2.4-3.4c0.2-0.9-2.3,6.2-1.4,9.1
		C229.8,409.9,230.7,411.3,233.9,413.7L233.9,413.7z"/>
	<path class="st8" d="M227.5,407.6c0,0-0.8,1.4-0.8,2.4c-0.1,1.1,0,5.2,0,5.2s1.4,2,1.8,3.1c0.4,1.1,0.3,3.2,0.3,3.2
		s1.1-2.2,1.7-4.2c0.6-2-0.1-4.8,0.4-5.3c0.5-0.5-2.4-4.4-2.5-4.6C228.2,407.4,227.5,407.6,227.5,407.6L227.5,407.6z"/>
	<path class="st8" d="M239.1,413.2c0,0,2.1-2.7,3-4.7c0.8-2,0.4-3.7,0.4-3.7s-2.1-3.4-2.7-4.4c-0.5-1,0-2.9,0.6-3.9
		c0.6-1.1,0.6-1.1,0.6-1.1s-1.6,4-2.2,4.5c-0.6,0.5-2.8,3.2-2.9,3.9c-0.1,0.7-0.4,4.1,0.4,4.9c0.8,0.8,2.2,1.6,2.4,2.7
		C238.9,412.3,239.1,413.2,239.1,413.2L239.1,413.2z"/>
	<path class="st8" d="M227.4,407c0.7-2.2,2-4.9,1.8-6.2c-0.1-1.3-1.4-2.5-2.8-3.5c-1.4-1-2.4-1.7-2.1-2.9c0.2-0.8-2,5.4-1.2,7.9
		C223.9,403.6,224.6,404.9,227.4,407L227.4,407z"/>
	<path class="st8" d="M230.6,399.8c0.8-2.3,2.1-5.2,1.9-6.6c-0.1-1.4-1.5-2.6-3-3.7c-1.5-1.1-2.5-1.8-2.2-3.1
		c0.2-0.9-2.1,5.7-1.3,8.3C226.9,396.2,227.7,397.6,230.6,399.8L230.6,399.8z"/>
	<path class="st8" d="M239.1,396c0.8-2.3,2.1-5.2,1.9-6.6c-0.1-1.4-1.5-2.6-3-3.7c-1.5-1.1-2.5-1.8-2.2-3.1c0.2-0.9-2.1,5.7-1.3,8.3
		C235.3,392.5,236.2,393.8,239.1,396L239.1,396z"/>
	<path class="st8" d="M225.7,387.3c0.5-2.4,1.3-5.5,1-6.8c-0.3-1.4-1.9-2.4-3.5-3.2c-1.6-0.9-2.8-1.4-2.7-2.8c0.1-0.9-1.3,6-0.1,8.4
		C221.5,384.3,222.5,385.5,225.7,387.3L225.7,387.3z"/>
	<path class="st8" d="M232.6,387.6c0.8-2.3,2-5.2,1.9-6.6c-0.1-1.4-1.5-2.6-3-3.7c-1.5-1.1-2.5-1.8-2.3-3.1c0.2-0.9-2,5.7-1.2,8.4
		C228.9,384.1,229.7,385.4,232.6,387.6L232.6,387.6z"/>
	<path class="st8" d="M226.4,378.6c0.9-2.3,2.3-5.1,2.2-6.5c-0.1-1.4-1.4-2.7-2.9-3.8c-1.5-1.1-2.5-1.9-2.1-3.2
		c0.2-0.9-2.3,5.6-1.6,8.3C222.8,374.9,223.6,376.3,226.4,378.6L226.4,378.6z"/>
	<path class="st8" d="M233.6,375c0.9-2.3,2.3-5.1,2.2-6.5c-0.1-1.4-1.4-2.7-2.9-3.8c-1.5-1.1-2.5-1.9-2.1-3.2
		c0.2-0.9-2.3,5.6-1.6,8.3C230.1,371.3,230.8,372.7,233.6,375L233.6,375z"/>
	<path class="st8" d="M226.1,363.8c1-2.2,2.5-5,2.5-6.5c0-1.4-1.3-2.7-2.7-3.9c-1.4-1.2-2.4-2-2-3.3c0.3-0.8-2.5,5.5-1.9,8.2
		C222.6,360,223.3,361.4,226.1,363.8L226.1,363.8z"/>
	<path class="st8" d="M230.3,357.5c2.2-1,5.2-2.2,6.1-3.2c0.9-1.1,0.8-2.9,0.5-4.7c-0.3-1.8-0.5-3.1,0.6-3.8
		c0.8-0.5-5.5,2.5-6.9,4.9C230.2,352.3,229.9,353.8,230.3,357.5L230.3,357.5z"/>
	<path class="st8" d="M234.4,339.3c2.2-1,5.2-2.2,6.1-3.2c0.9-1.1,0.8-2.9,0.5-4.7c-0.3-1.8-0.5-3.1,0.6-3.8
		c0.8-0.5-5.5,2.5-6.9,4.9C234.3,334.2,234,335.7,234.4,339.3L234.4,339.3z"/>
	<path class="st8" d="M227.4,349c0.1-5.4-1.9-4.8-1.7-7.6c0.1-3,3.1-6.4,3.1-7.7c-0.7,4.2,1.8,3.7,1.8,5.5
		C230.6,343.9,230,345.2,227.4,349L227.4,349z"/>
	<path class="st8" d="M230.2,349.3c2.9-4.5,1-5,2.6-7.3c1.7-2.5,6-3.7,6.7-4.8c-2.9,3.2-0.4,4.1-1.4,5.6
		C235.6,346.7,234.4,347.4,230.2,349.3L230.2,349.3z"/>
	<path class="st8" d="M228.4,335.8c1.3-4.9-0.6-4.9,0.2-7.4c0.8-2.8,4.4-5.2,4.7-6.4c-1.6,3.7,0.8,3.9,0.4,5.5
		C232.5,331.9,231.6,332.9,228.4,335.8L228.4,335.8z"/>
	<path class="st8" d="M251.5,314.1l-3.8,2.7c-7.2-0.1-6.5,6.1-6.7,11c7.3-2,7.1-4.8,6.9-10.9l1.9-1.4l1.8-1.1L251.5,314.1
		L251.5,314.1z"/>
	<path class="st8" d="M255.8,303.5l-4.3,2c-7-1.4-7.5,4.7-8.7,9.5c7.6-0.6,7.9-3.4,8.8-9.4l2.1-1.1l2-0.8L255.8,303.5L255.8,303.5z"
		/>
	<path class="st8" d="M239.2,295.6l-1.5,4.5c-5.9,4.1-1.8,8.7,0.9,12.9c4.8-5.9,3-8-0.7-12.8l0.7-2.3l0.8-2L239.2,295.6L239.2,295.6
		z"/>
	<path class="st8" d="M250.4,291l-3,3.6c-6.9,1.8-4.7,7.5-3.7,12.4c6.5-3.8,5.6-6.5,3.8-12.3l1.5-1.9l1.5-1.5L250.4,291L250.4,291z"
		/>
	<path class="st8" d="M264.1,294.6l-4.6,1c-6.6-2.9-8.4,3-10.5,7.5c7.5,1,8.4-1.6,10.6-7.3l2.3-0.6l2.1-0.3L264.1,294.6L264.1,294.6
		z"/>
	<path class="st8" d="M269.7,286.7l-4.7,0.6c-6.3-3.4-8.6,2.3-11.1,6.6c7.4,1.6,8.5-1,11.1-6.4l2.3-0.4l2.1-0.1L269.7,286.7
		L269.7,286.7z"/>
	<path class="st8" d="M241.8,311.5l-2.9,3.7c-6.9,1.9-4.5,7.6-3.4,12.5c6.4-4,5.4-6.6,3.5-12.3l1.4-1.9l1.4-1.6L241.8,311.5
		L241.8,311.5z"/>
	<path class="st8" d="M229.2,322.9c0.5-3.1-0.1-4.7,0.5-7.3c0.9-3.7,4.3-6.5,4.3-6.5c0.1,3.5,0.7,4.3,0.4,5.5
		C233.4,318.9,232.5,319.9,229.2,322.9L229.2,322.9z"/>
	<path class="st8" d="M239,300c0.4-3.1-0.3-4.6,0.3-7.3c0.8-3.7,4.2-6.6,4.2-6.6c0.1,3.5,0.8,4.3,0.5,5.5
		C243,295.9,242.2,296.9,239,300L239,300z"/>
	<path class="st8" d="M245.9,293c0.4-3.1-0.3-4.6,0.3-7.3c0.8-3.7,4.2-6.6,4.2-6.6c0.1,3.5,0.8,4.3,0.5,5.5
		C249.9,289,249,290,245.9,293L245.9,293z"/>
	<path class="st8" d="M250.3,280.3c0.4-3.1-0.3-4.6,0.3-7.3c0.8-3.7,4.2-6.6,4.2-6.6c0.1,3.5,0.8,4.3,0.5,5.5
		C254.4,276.2,253.5,277.2,250.3,280.3L250.3,280.3z"/>
	<path class="st8" d="M261.8,270.7l-2.9,3.7c-6.9,1.9-4.6,7.6-3.5,12.4c6.5-4,5.5-6.6,3.6-12.3l1.4-1.9l1.4-1.6L261.8,270.7
		L261.8,270.7z"/>
	<path class="st8" d="M260.1,284c2.2-2.8,2.4-4.7,4.4-7c2.9-3.2,7.9-4.2,7.9-4.2c-1.9,3.6-1.6,4.7-2.6,5.7
		C266.4,282.3,264.9,282.8,260.1,284L260.1,284z"/>
	<path class="st8" d="M263.2,275.6c0.4-3.1-0.3-4.6,0.3-7.3c0.8-3.7,4.2-6.6,4.2-6.6c0.1,3.5,0.8,4.3,0.5,5.5
		C267.2,271.5,266.3,272.5,263.2,275.6L263.2,275.6z"/>
	<path class="st8" d="M269.2,271.1c1.8-2.6,1.8-4.3,3.5-6.4c2.4-2.9,6.7-4.1,6.7-4.1c-1.4,3.2-1.2,4.2-1.9,5.1
		C274.7,269.2,273.4,269.7,269.2,271.1L269.2,271.1z"/>
	<path class="st8" d="M265.9,257.3l-3.5,3.1c-7.1,0.7-5.8,6.7-5.6,11.7c7.1-2.8,6.5-5.5,5.7-11.5l1.7-1.6l1.7-1.3L265.9,257.3
		L265.9,257.3z"/>
	<path class="st8" d="M271.4,248.5l-3.2,3.5c-7,1.4-5.1,7.2-4.4,12.1c6.7-3.5,6-6.1,4.5-12l1.6-1.8l1.5-1.5L271.4,248.5L271.4,248.5
		z"/>
	<path class="st8" d="M278.3,244.5l-2.9,3.7c-6.9,2-4.5,7.7-3.3,12.5c6.4-4.1,5.4-6.7,3.4-12.4l1.4-1.9l1.4-1.6L278.3,244.5
		L278.3,244.5z"/>
	<path class="st8" d="M275.9,260.2c3-2.1,3.8-3.9,6.5-5.4c3.8-2.2,9-1.6,9-1.6c-3,2.9-3.1,4.1-4.3,4.7
		C282.6,260.5,281.1,260.5,275.9,260.2L275.9,260.2z"/>
	<path class="st8" d="M290.5,239.3l-4.1,2.4c-7.1-0.7-7,5.4-7.7,10.4c7.5-1.4,7.5-4.2,7.8-10.2l2-1.3l1.9-0.9L290.5,239.3
		L290.5,239.3z"/>
	<path class="st8" d="M305.7,243.4l-4.6,1c-6.5-2.9-8.4,2.9-10.6,7.4c7.5,1.1,8.4-1.6,10.7-7.2l2.3-0.6l2.1-0.3L305.7,243.4
		L305.7,243.4z"/>
	<path class="st8" d="M304.2,231.1l-4.4,1.6c-6.9-2.1-7.9,4-9.6,8.7c7.6,0.1,8.1-2.6,9.6-8.5l2.2-0.9l2-0.6L304.2,231.1L304.2,231.1
		z"/>
	<path class="st8" d="M296.4,242.5c3-2.1,3.8-3.9,6.5-5.4c3.8-2.2,9-1.6,9-1.6c-3,2.9-3.1,4.1-4.3,4.7
		C303.1,242.8,301.5,242.9,296.4,242.5L296.4,242.5z"/>
	<path class="st8" d="M320.9,219.4l-4.4,1.8c-7-1.7-7.7,4.4-9.1,9.1c7.6-0.3,8-3,9.2-9l2.2-1l2-0.7L320.9,219.4L320.9,219.4z"/>
	<path class="st8" d="M319.7,230.8l-4.7-0.4c-5.4-4.7-8.9,0.4-12.3,4c6.9,3.2,8.5,0.9,12.3-3.8l2.4,0.1l2.1,0.3L319.7,230.8
		L319.7,230.8z"/>
	<path class="st8" d="M333.7,214.5l-4.4,1.8c-7-1.7-7.7,4.4-9.1,9.1c7.6-0.3,8-3,9.2-9l2.2-1l2-0.7L333.7,214.5L333.7,214.5z"/>
	<path class="st8" d="M334.1,227.3l-4.7-0.5c-5.3-4.8-8.9,0.2-12.3,3.8c6.8,3.3,8.5,1.1,12.3-3.6l2.4,0.2l2.1,0.4L334.1,227.3
		L334.1,227.3z"/>
	<path class="st8" d="M343.5,213.2l-4.4,1.8c-7-1.7-7.7,4.4-9.1,9.1c7.6-0.3,8-3,9.2-9l2.2-1l2-0.7L343.5,213.2L343.5,213.2z"/>
	<path class="st8" d="M464.3,519.7c0,0,4.5-0.8,6.7-3c2.1-2.3,3.6-5.3,3.6-5.3s-4.9,0.5-5.8,1.2c-0.9,0.8-3.3,1.7-3.9,4.4
		C464.3,519.7,464.3,519.7,464.3,519.7L464.3,519.7z"/>
	<path class="st8" d="M474.5,518c0,0,6.4-1.8,7.6-3.3s2.7-4.7,2.7-4.7s-4.9,0.2-6.4,1.7c-1.5,1.5-3.3,4.4-3.3,4.4L474.5,518
		L474.5,518z"/>
	<path class="st8" d="M479.7,521.3c0,0,0.8-2.8,2-4.4c1.2-1.6,2.7-2.4,2.7-2.4l6-0.3l-0.5,3.6c0,0-1,2-3,2.6c-2,0.6-5.7,0.3-5.7,0.3
		L479.7,521.3L479.7,521.3z"/>
	<path class="st8" d="M482.2,509.1c0,0,1.1-2.7,2.9-4.4c1.7-1.7,3.8-3,3.8-3l3.8-0.1l-0.5,2c0,0-2.2,3.1-4.2,3.9
		C486,508.4,482.2,509.1,482.2,509.1L482.2,509.1z"/>
	<path class="st8" d="M499.1,503.6l-3.6,0.2c0,0-2.3,0.9-4.1,3c-1.8,2.1-2.1,4.3-2.7,5.2c-0.6,0.8,0.5-0.8,1.7-1.1
		c1.2-0.2,4.6-2.5,4.7-1.8c0.1,0.7,1.7-1.4,2.7-2.6C498.7,505.3,499.1,503.6,499.1,503.6L499.1,503.6z"/>
	<path class="st8" d="M500.5,508.2c0,0,0.5-3.7,0.8-5.2c0.3-1.5,2-3,3.1-3.6s4.2-0.8,5-1.6c0.8-0.8,1.4-3.6,1.4-3.6
		s-1.4,3.6-1.4,5.1c0,1.4-0.2,3.4-0.2,3.4s-0.2,1.4-2.5,2.6c-2.3,1.1-3.1,1-3.9,1.4C501.9,507.2,500.5,508.2,500.5,508.2
		L500.5,508.2z"/>
	<path class="st8" d="M497.5,499.1l0.2-6.1c0,0,2.2-2.5,4.2-3.1c2-0.6,4.2-1.4,4.2-1.4l1.3-3.5c0,0-1.2,3.3-1.4,5.9
		c-0.2,2.6,0.1,3.1-0.7,3.9c-0.8,0.8-3.2,2.4-4.4,2.7c-1.2,0.3-2.5,1.3-2.5,1.3L497.5,499.1L497.5,499.1z"/>
	<path class="st8" d="M508,487.4l0.8-5.9c0,0,1.7-2.7,4.3-3.4c2.6-0.7,3.6-0.7,3.6-0.7l1.7-4.2c0,0-1.6,4.7-1.8,6.2
		c-0.2,1.5-0.2,3.3-0.2,3.3s-0.6,2-1.7,2.3c-1.1,0.3-2.3,0.6-3.3,0.9c-1,0.3-2.5,1.3-2.5,1.3L508,487.4L508,487.4z"/>
	<path class="st8" d="M511.9,491.6l0.8-3.9c0,0,0.4-1.8,2.3-3c2-1.2,3-1.4,3-1.4l3.4-0.5l2-3.6c0,0-2.5,3.9-2.5,5.2
		c0,1.2-0.2,3-0.2,3s-1,2.2-2.9,2.9c-1.9,0.7-4.5,0.8-4.5,0.8L511.9,491.6L511.9,491.6z"/>
	<path class="st8" d="M520.7,493.1c0,0,0.4-4.9,1.5-6.1c1.1-1.2,3-2.7,4.3-2.7s4.4-0.8,4.4-0.8l1.7-3c0,0-2.1,3.6-2.1,5.5
		c0,1.8,0,2.7,0,2.7s-2.3,2.3-3.9,2.7s-3.9,0.7-3.9,0.7L520.7,493.1L520.7,493.1z"/>
	<path class="st8" d="M535,473.1l-4.4,0.5c0,0-2.7,0.9-3.9,3c-1.3,2.1-3.1,5.5-3.1,5.5s1.1-1.4,2.5-1.7c1.4-0.3,4.1-0.2,5.3-1.8
		c1.2-1.6,3.3-4.2,3.3-4.2L535,473.1L535,473.1z"/>
	<path class="st8" d="M522.1,477.6l0.1-6c0,0,1.1-3.9,2.6-4.8c1.4-0.9,3.3-1.1,3.4-1.4c0.2-0.4,0.2-1.1,0.2-1.1l0.1,4.9
		c0,0-1.3,2.9-2.5,4.2c-1.2,1.3-2.9,3-3.3,3C522.1,476.3,522.1,477.6,522.1,477.6L522.1,477.6z"/>
	<path class="st8" d="M530.7,471.6c0,0-0.5-5.2,0-6.4c0.5-1.2,2.9-4,3.9-4.9c1-0.8,1.4-1.5,1.4-1.5l-0.2,6.2c0,0-1.1,2.3-2.5,3.6
		C531.9,470,530.7,471.6,530.7,471.6L530.7,471.6z"/>
	<path class="st8" d="M538.9,469.4l-0.1-7.5c0,0,2.3-2.3,4.2-3c1.9-0.7,3.2-1.1,3.3-2.6c0.1-1.4-0.1,5.2-0.1,5.2s0,2.9-1.1,3.9
		c-1.1,1.1-4.4,2.9-4.4,2.9L538.9,469.4L538.9,469.4z"/>
	<path class="st8" d="M537.5,460.2c0,0-0.4-5.2,0.2-6.7c0.6-1.4,3.5-3.5,4-4.4c0.5-0.9,0.2-2.9,0.2-2.9s1.2,3.2,1.2,4.4
		c0,1.2-0.4,4.9-1.2,5.5c-0.8,0.6-3,2.8-3,2.8L537.5,460.2L537.5,460.2z"/>
	<path class="st8" d="M530,458.7c0,0,0.4-6.1,1-7.7c0.6-1.6,2.9-4.2,4-4.5c1.1-0.4,1.9-1.7,1.9-1.7l-0.5,4.4c0,0-1.4,4.2-2.5,5.1
		c-1.1,0.8-2,1.4-2,1.4s-0.5,1-1.2,2C530,458.7,530,458.7,530,458.7L530,458.7z"/>
	<path class="st8" d="M546.7,459.5l-0.1-7.5c0,0,2.3-2.3,4.2-3c1.9-0.7,3.2-1.1,3.3-2.6c0.1-1.4-0.1,5.2-0.1,5.2s0,2.9-1.1,3.9
		c-1.1,1.1-4.4,2.9-4.4,2.9L546.7,459.5L546.7,459.5z"/>
	<path class="st8" d="M541.7,447.9c0,0,0.7-5,1.5-6.3c0.7-1.3,3.2-3.4,4.4-3.7c1.2-0.3,2.1-1.4,2.1-1.4l-0.7,3.6
		c0,0-1.7,3.5-2.9,4.2c-1.2,0.7-2.2,1.2-2.2,1.2s-0.6,0.8-1.4,1.6C541.7,447.9,541.7,447.9,541.7,447.9L541.7,447.9z"/>
	<path class="st8" d="M549.7,446.7c0,0,0.7-5,1.5-6.3c0.7-1.3,3.2-3.4,4.4-3.7c1.2-0.3,2.1-1.4,2.1-1.4l-0.7,3.6
		c0,0-1.7,3.5-2.9,4.2c-1.2,0.7-2.2,1.2-2.2,1.2s-0.6,0.8-1.4,1.6C549.7,446.7,549.7,446.7,549.7,446.7L549.7,446.7z"/>
	<path class="st8" d="M542.5,440.3c-1-2.5-2.6-5.5-2.5-7.1c0.1-1.5,1.5-2.9,3.1-4.2c1.6-1.3,2.6-2.1,2.2-3.5
		c-0.4-1.4,1.6,4.9,1.6,4.9s0.9,2.7,0.3,4.1c-0.7,1.3-3.2,4.1-3.2,4.1L542.5,440.3L542.5,440.3z"/>
	<path class="st8" d="M549.3,428.6c-1.4-2.2-3.5-5-3.7-6.5c-0.2-1.5,0.9-3.1,2.3-4.7c1.3-1.5,2.2-2.5,1.6-3.8
		c-0.6-1.3,2.5,4.5,2.5,4.5s1.4,2.5,1,4c-0.4,1.4-2.4,4.7-2.4,4.7L549.3,428.6L549.3,428.6z"/>
	<path class="st8" d="M556.7,435.4c-0.9-2.5-2.3-5.7-2.1-7.2c0.1-1.5,1.6-2.8,3.3-4c1.6-1.2,2.8-2,2.4-3.4c-0.2-0.9,2.3,6.2,1.4,9.1
		C560.7,431.5,559.9,433,556.7,435.4L556.7,435.4z"/>
	<path class="st8" d="M553.9,426.4c-0.9-2.5-2.3-5.7-2.1-7.2c0.1-1.5,1.6-2.8,3.3-4c1.6-1.2,2.8-2,2.4-3.4c-0.2-0.9,2.3,6.2,1.4,9.1
		C558,422.5,557.1,423.9,553.9,426.4L553.9,426.4z"/>
	<path class="st8" d="M557.8,413.7c-0.9-2.5-2.3-5.7-2.1-7.2c0.1-1.5,1.6-2.8,3.3-4c1.6-1.2,2.8-2,2.4-3.4c-0.2-0.9,2.3,6.2,1.4,9.1
		C561.8,409.9,561,411.3,557.8,413.7L557.8,413.7z"/>
	<path class="st8" d="M564.2,407.6c0,0,0.8,1.4,0.8,2.4c0.1,1.1,0,5.2,0,5.2s-1.4,2-1.8,3.1c-0.4,1.1-0.3,3.2-0.3,3.2
		s-1.1-2.2-1.7-4.2c-0.6-2,0.1-4.8-0.4-5.3c-0.5-0.5,2.4-4.4,2.5-4.6C563.4,407.4,564.2,407.6,564.2,407.6L564.2,407.6z"/>
	<path class="st8" d="M552.6,413.2c0,0-2.1-2.7-3-4.7c-0.8-2-0.4-3.7-0.4-3.7s2.1-3.4,2.7-4.4c0.5-1,0-2.9-0.6-3.9
		c-0.6-1.1-0.6-1.1-0.6-1.1s1.6,4,2.2,4.5c0.6,0.5,2.8,3.2,2.9,3.9c0.1,0.7,0.4,4.1-0.4,4.9c-0.8,0.8-2.2,1.6-2.4,2.7
		C552.7,412.3,552.6,413.2,552.6,413.2L552.6,413.2z"/>
	<path class="st8" d="M564.3,407c-0.7-2.2-2-4.9-1.8-6.2c0.1-1.3,1.4-2.5,2.8-3.5s2.4-1.7,2.1-2.9c-0.2-0.8,2,5.4,1.2,7.9
		C567.8,403.6,567,404.9,564.3,407L564.3,407z"/>
	<path class="st8" d="M561,399.8c-0.8-2.3-2.1-5.2-1.9-6.6c0.1-1.4,1.5-2.6,3-3.7c1.5-1.1,2.5-1.8,2.2-3.1c-0.2-0.9,2.1,5.7,1.3,8.3
		C564.7,396.2,563.9,397.6,561,399.8L561,399.8z"/>
	<path class="st8" d="M552.6,396c-0.8-2.3-2.1-5.2-1.9-6.6c0.1-1.4,1.5-2.6,3-3.7c1.5-1.1,2.5-1.8,2.2-3.1c-0.2-0.9,2.1,5.7,1.3,8.3
		C556.3,392.5,555.5,393.8,552.6,396L552.6,396z"/>
	<path class="st8" d="M566,387.3c-0.5-2.4-1.3-5.5-1-6.8c0.3-1.4,1.9-2.4,3.5-3.2c1.6-0.9,2.8-1.4,2.7-2.8c-0.1-0.9,1.3,6,0.1,8.4
		C570.2,384.3,569.2,385.5,566,387.3L566,387.3z"/>
	<path class="st8" d="M559,387.6c-0.8-2.3-2-5.2-1.9-6.6c0.1-1.4,1.5-2.6,3-3.7c1.5-1.1,2.5-1.8,2.3-3.1c-0.2-0.9,2,5.7,1.2,8.4
		C562.8,384.1,561.9,385.4,559,387.6L559,387.6z"/>
	<path class="st8" d="M565.2,378.6c-0.9-2.3-2.3-5.1-2.2-6.5c0.1-1.4,1.4-2.7,2.9-3.8s2.5-1.9,2.1-3.2c-0.2-0.9,2.3,5.6,1.6,8.3
		C568.8,374.9,568.1,376.3,565.2,378.6L565.2,378.6z"/>
	<path class="st8" d="M558,375c-0.9-2.3-2.3-5.1-2.2-6.5c0.1-1.4,1.4-2.7,2.9-3.8c1.5-1.1,2.5-1.9,2.1-3.2c-0.2-0.9,2.3,5.6,1.6,8.3
		C561.6,371.3,560.8,372.7,558,375L558,375z"/>
	<path class="st8" d="M565.6,363.8c-1-2.2-2.5-5-2.5-6.5c0-1.4,1.3-2.7,2.7-3.9c1.4-1.2,2.4-2,2-3.3c-0.3-0.8,2.5,5.5,1.9,8.2
		C569,360,568.3,361.4,565.6,363.8L565.6,363.8z"/>
	<path class="st8" d="M561.3,357.5c-2.2-1-5.2-2.2-6.1-3.2c-0.9-1.1-0.8-2.9-0.5-4.7c0.3-1.8,0.5-3.1-0.6-3.8
		c-0.8-0.5,5.5,2.5,6.9,4.9C561.4,352.3,561.8,353.8,561.3,357.5L561.3,357.5z"/>
	<path class="st8" d="M557.2,339.3c-2.2-1-5.2-2.2-6.1-3.2c-0.9-1.1-0.8-2.9-0.5-4.7c0.3-1.8,0.5-3.1-0.6-3.8
		c-0.8-0.5,5.5,2.5,6.9,4.9C557.3,334.2,557.7,335.7,557.2,339.3L557.2,339.3z"/>
	<path class="st8" d="M564.2,349c-0.1-5.4,1.9-4.8,1.7-7.6c-0.1-3-3.1-6.4-3.1-7.7c0.7,4.2-1.8,3.7-1.8,5.5
		C561,343.9,561.7,345.2,564.2,349L564.2,349z"/>
	<path class="st8" d="M561.5,349.3c-2.9-4.5-1-5-2.6-7.3c-1.7-2.5-6-3.7-6.7-4.8c2.9,3.2,0.4,4.1,1.4,5.6
		C556.1,346.7,557.3,347.4,561.5,349.3L561.5,349.3z"/>
	<path class="st8" d="M563.3,335.8c-1.3-4.9,0.6-4.9-0.2-7.4c-0.8-2.8-4.4-5.2-4.7-6.4c1.6,3.7-0.8,3.9-0.4,5.5
		C559.1,331.9,560,332.9,563.3,335.8L563.3,335.8z"/>
	<path class="st8" d="M540.1,314.1l3.8,2.7c7.2-0.1,6.5,6.1,6.7,11c-7.3-2-7.1-4.8-6.9-10.9l-1.9-1.4l-1.8-1.1L540.1,314.1
		L540.1,314.1z"/>
	<path class="st8" d="M535.9,303.5l4.3,2c7-1.4,7.5,4.7,8.7,9.5c-7.6-0.6-7.9-3.4-8.8-9.4l-2.1-1.1l-2-0.8L535.9,303.5L535.9,303.5z
		"/>
	<path class="st8" d="M552.4,295.6l1.5,4.5c5.9,4.1,1.8,8.7-0.9,12.9c-4.8-5.9-3-8,0.7-12.8l-0.7-2.3l-0.8-2L552.4,295.6
		L552.4,295.6z"/>
	<path class="st8" d="M541.3,291l3,3.6c6.9,1.8,4.7,7.5,3.7,12.4c-6.5-3.8-5.6-6.5-3.8-12.3l-1.5-1.9l-1.5-1.5L541.3,291L541.3,291z
		"/>
	<path class="st8" d="M527.5,294.6l4.6,1c6.6-2.9,8.4,3,10.5,7.5c-7.5,1-8.4-1.6-10.6-7.3l-2.3-0.6l-2.1-0.3L527.5,294.6
		L527.5,294.6z"/>
	<path class="st8" d="M521.9,286.7l4.7,0.6c6.3-3.4,8.6,2.3,11.1,6.6c-7.4,1.6-8.5-1-11.1-6.4l-2.3-0.4l-2.1-0.1L521.9,286.7
		L521.9,286.7z"/>
	<path class="st8" d="M549.8,311.5l2.9,3.7c6.9,1.9,4.5,7.6,3.4,12.5c-6.4-4-5.4-6.6-3.5-12.3l-1.4-1.9l-1.4-1.6L549.8,311.5
		L549.8,311.5z"/>
	<path class="st8" d="M562.4,322.9c-0.5-3.1,0.1-4.7-0.5-7.3c-0.9-3.7-4.3-6.5-4.3-6.5c-0.1,3.5-0.7,4.3-0.4,5.5
		C558.3,318.9,559.2,319.9,562.4,322.9L562.4,322.9z"/>
	<path class="st8" d="M552.7,300c-0.4-3.1,0.3-4.6-0.3-7.3c-0.8-3.7-4.2-6.6-4.2-6.6c-0.1,3.5-0.8,4.3-0.5,5.5
		C548.6,295.9,549.5,296.9,552.7,300L552.7,300z"/>
	<path class="st8" d="M545.8,293c-0.4-3.1,0.3-4.6-0.3-7.3c-0.8-3.7-4.2-6.6-4.2-6.6c-0.1,3.5-0.8,4.3-0.5,5.5
		C541.7,289,542.6,290,545.8,293L545.8,293z"/>
	<path class="st8" d="M541.4,280.3c-0.4-3.1,0.3-4.6-0.3-7.3c-0.8-3.7-4.2-6.6-4.2-6.6c-0.1,3.5-0.8,4.3-0.5,5.5
		C537.3,276.2,538.2,277.2,541.4,280.3L541.4,280.3z"/>
	<path class="st8" d="M529.9,270.7l2.9,3.7c6.9,1.9,4.6,7.6,3.5,12.4c-6.5-4-5.5-6.6-3.6-12.3l-1.4-1.9l-1.4-1.6L529.9,270.7
		L529.9,270.7z"/>
	<path class="st8" d="M531.6,284c-2.2-2.8-2.4-4.7-4.4-7c-2.9-3.2-7.9-4.2-7.9-4.2c1.9,3.6,1.6,4.7,2.6,5.7
		C525.3,282.3,526.7,282.8,531.6,284L531.6,284z"/>
	<path class="st8" d="M528.5,275.6c-0.4-3.1,0.3-4.6-0.3-7.3c-0.8-3.7-4.2-6.6-4.2-6.6c-0.1,3.5-0.8,4.3-0.5,5.5
		C524.4,271.5,525.3,272.5,528.5,275.6L528.5,275.6z"/>
	<path class="st8" d="M522.4,271.1c-1.8-2.6-1.8-4.3-3.5-6.4c-2.4-2.9-6.7-4.1-6.7-4.1c1.4,3.2,1.2,4.2,1.9,5.1
		C517,269.2,518.2,269.7,522.4,271.1L522.4,271.1z"/>
	<path class="st8" d="M525.7,257.3l3.5,3.1c7.1,0.7,5.8,6.7,5.6,11.7c-7.1-2.8-6.5-5.5-5.7-11.5l-1.7-1.6l-1.7-1.3L525.7,257.3
		L525.7,257.3z"/>
	<path class="st8" d="M520.3,248.5l3.2,3.5c7,1.4,5.1,7.2,4.4,12.1c-6.7-3.5-6-6.1-4.5-12l-1.6-1.8l-1.5-1.5L520.3,248.5
		L520.3,248.5z"/>
	<path class="st8" d="M513.3,244.5l2.9,3.7c6.9,2,4.5,7.7,3.3,12.5c-6.4-4.1-5.4-6.7-3.4-12.4l-1.4-1.9l-1.4-1.6L513.3,244.5
		L513.3,244.5z"/>
	<path class="st8" d="M515.7,260.2c-3-2.1-3.8-3.9-6.5-5.4c-3.8-2.2-9-1.6-9-1.6c3,2.9,3.1,4.1,4.3,4.7
		C509,260.5,510.6,260.5,515.7,260.2L515.7,260.2z"/>
	<path class="st8" d="M501.2,239.3l4.1,2.4c7.1-0.7,7,5.4,7.7,10.4c-7.5-1.4-7.5-4.2-7.8-10.2l-2-1.3l-1.9-0.9L501.2,239.3
		L501.2,239.3z"/>
	<path class="st8" d="M486,243.4l4.6,1c6.5-2.9,8.4,2.9,10.6,7.4c-7.5,1.1-8.4-1.6-10.7-7.2l-2.3-0.6l-2.1-0.3L486,243.4L486,243.4z
		"/>
	<path class="st8" d="M487.4,231.1l4.4,1.6c6.9-2.1,7.9,4,9.6,8.7c-7.6,0.1-8.1-2.6-9.6-8.5l-2.2-0.9l-2-0.6L487.4,231.1
		L487.4,231.1z"/>
	<path class="st8" d="M495.2,242.5c-3-2.1-3.8-3.9-6.5-5.4c-3.8-2.2-9-1.6-9-1.6c3,2.9,3.1,4.1,4.3,4.7
		C488.6,242.8,490.1,242.9,495.2,242.5L495.2,242.5z"/>
	<path class="st8" d="M470.8,219.4l4.4,1.8c7-1.7,7.7,4.4,9.1,9.1c-7.6-0.3-8-3-9.2-9l-2.2-1l-2-0.7L470.8,219.4L470.8,219.4z"/>
	<path class="st8" d="M471.9,230.8l4.7-0.4c5.4-4.7,8.9,0.4,12.3,4c-6.9,3.2-8.5,0.9-12.3-3.8l-2.4,0.1l-2.1,0.3L471.9,230.8
		L471.9,230.8z"/>
	<path class="st8" d="M458,214.5l4.4,1.8c7-1.7,7.7,4.4,9.1,9.1c-7.6-0.3-8-3-9.2-9l-2.2-1l-2-0.7L458,214.5L458,214.5z"/>
	<path class="st8" d="M457.6,227.3l4.7-0.5c5.3-4.8,8.9,0.2,12.3,3.8c-6.8,3.3-8.5,1.1-12.3-3.6l-2.4,0.2l-2.1,0.4L457.6,227.3
		L457.6,227.3z"/>
	<path class="st8" d="M448.2,213.2l4.4,1.8c7-1.7,7.7,4.4,9.1,9.1c-7.6-0.3-8-3-9.2-9l-2.2-1l-2-0.7L448.2,213.2L448.2,213.2z"/>
	<path class="st8" d="M388.4,613.9c-0.4-2.6-1.5-8.2-0.3-10.7c1.2-2.4,1.7-2.3,4.2-2.4c2.5-0.1,6.8-0.5,7.5,2.6
		c0.8,3.7-0.1,7.2-1.1,10.7l-1.7,0c0.6-1.6,2.5-8.9,0.3-9.9c-1.2-0.5-3.4,1-5.8-0.3c-0.5-0.3-1.4,0.2-1.4,0.2
		c-1.5,3.3-0.5,6.8,0,9.8L388.4,613.9L388.4,613.9z"/>
	<path class="st8" d="M390.7,614c-0.5-2.5-1.1-6.2-0.3-8.7c0,0,0.4-0.7,0.9-0.4c3.1,2.2,4.9,0.1,5.5,0.3c0.4,0.2,0.6,0.2,0.7,0.5
		c0.5,2.3-0.2,5.6-0.8,8.4l-2.6,0.1l-0.5-6c-0.2,2-0.4,3.9-1.1,5.8L390.7,614L390.7,614z"/>
	<path class="st8" d="M387.5,613.7c-0.5-4.3-1.2-9.2-0.6-10.2c0.3-0.5,0.4-0.6,0.3-0.7c-0.9-0.7-1.3-1.2-1.9-1.2
		c-0.5,0-1.1,0.8-1.7,1.5c-0.1,0.1,0.6,0.9,0.8,1.4c0.8,1.8,1.3,6.7,1.6,9.2L387.5,613.7L387.5,613.7z"/>
	<path class="st9" d="M395.8,608.9c0.1,1.9-0.4,3.5-0.7,5.2 M396.6,608.2c0.1,2.3-0.4,3.9-0.7,5.9 M391.7,608.7
		c-0.2,1.9,0.1,3.5,0.3,5.2 M391,608.1c-0.3,2.2-0.1,3.9,0,5.9"/>
	<path class="st8" d="M373.6,614l1.6,0c-1.1-3-2.7-6.6-2-9.8c0,0,0.7-0.6,1.3-0.3c2.6,1.3,4.3-0.3,5.6,0.2c2.3,0.9,2.1,8.1,1.8,9.9
		l1.6,0c0.2-3.5,0.3-7.1-1.3-10.8c-1.3-3.1-5.2-2.6-7.6-2.5c-2.4,0.1-2.9,0-3.5,2.5C370.5,605.8,372.7,611.2,373.6,614L373.6,614z"
		/>
	<path class="st8" d="M375.8,614l1.8,0c0.3-1.9,0-3.8-0.2-5.8l1.7,5.8l2.5,0c0-2.8,0-6.1-1-8.4c-0.1-0.3-0.3-0.3-0.8-0.5
		c-0.6-0.2-1.9,1.9-5.3-0.3c-0.5-0.3-0.7,0.4-0.7,0.4C373.5,607.8,374.8,611.5,375.8,614L375.8,614z"/>
	<path class="st8" d="M371.3,614l1.4,0l0.1,0c-1.4-4.4-3.1-9.4-2.8-10.4c0.2-0.5,0.2-0.7,0.1-0.7c-1-0.7-1.5-1.2-2.1-1.2
		c-0.5,0.1-0.9,0.8-1.3,1.6c0,0.1,0.7,0.9,1.1,1.4C369,606.4,370.5,611.4,371.3,614L371.3,614z"/>
	<path class="st9" d="M379.6,609c0.4,1.9,0.4,3.4,0.4,5 M380.2,608.3c0.6,2.2,0.5,3.9,0.6,5.8 M375.7,608.8c0.2,1.9,0.8,3.5,1.4,5.2
		 M374.9,608.2c0.2,2.2,0.7,3.9,1.2,5.8"/>
	<path class="st8" d="M404.2,613.9c0-2.7-0.4-8.3,1.2-10.8c1.5-2.4,2-2.2,4.5-2.2c2.5,0,6.8-0.3,7,2.8c0.3,3.7-1.1,7.2-2.5,10.7
		l-1.7-0.1c0.8-1.5,3.7-8.9,1.7-9.9c-1.1-0.6-3.5,0.9-5.7-0.5c-0.5-0.3-1.5,0.2-1.5,0.2c-1.9,3.2-1.5,6.8-1.4,9.9L404.2,613.9
		L404.2,613.9z"/>
	<path class="st8" d="M406.4,614c-0.1-2.5-0.3-6.3,0.9-8.7c0,0,0.5-0.7,0.9-0.4c2.8,2.3,4.8,0.3,5.4,0.5c0.4,0.2,0.6,0.2,0.6,0.5
		c0.2,2.3-1,5.7-2,8.4l-2.5,0l0.3-6.1c-0.5,2-0.9,3.9-1.9,5.8L406.4,614L406.4,614z"/>
	<path class="st8" d="M403.3,613.7c0.1-4.3,0-9.3,0.8-10.3c0.4-0.5,0.4-0.6,0.4-0.7c-0.8-0.7-1.2-1.3-1.7-1.3
		c-0.5,0-1.2,0.8-1.9,1.5c-0.1,0.1,0.4,0.9,0.6,1.4c0.6,1.8,0.4,6.7,0.3,9.3L403.3,613.7L403.3,613.7z"/>
	<path class="st9" d="M412.1,609.1c-0.2,2-0.9,3.5-1.4,5.2 M413,608.4c-0.2,2.3-0.9,3.9-1.5,5.9 M408.1,608.7
		c-0.5,1.9-0.4,3.5-0.4,5.2 M407.6,608.1c-0.6,2.2-0.6,3.9-0.8,5.9"/>
	<path class="st8" d="M416.2,614.1c1.5-4.1,2.9-8.8,3.9-9.7c0.5-0.5,0.6-0.6,0.6-0.7c-0.5-0.7-0.6-1.2-1.2-1.2
		c-0.5,0-1.3,0.7-2.2,1.4c-0.1,0.1,0.1,0.9,0.1,1.4c-0.1,1.7-1.8,6.3-2.6,8.7L416.2,614.1L416.2,614.1z"/>
	<path class="st8" d="M427.6,609.4c0.8-0.7,1.6-1.4,2.5-2.1c0.6-1.3,1-2.6,1.3-3.9c0.5-2.9-3.4-2.2-5.8-2c-2.3,0.2-2.7,0.1-4.7,2.5
		c-2.1,2.5-3.1,7.7-3.7,10.3l1.5-0.1c0.7-2.9,1.1-6.2,3.7-9.4c0,0,1-0.6,1.4-0.3c1.7,1.1,4.2-0.5,5.1-0.1
		C429.8,604.8,428.8,607.1,427.6,609.4L427.6,609.4z"/>
	<path class="st8" d="M422.4,613.7c1.4-1.2,2.9-2.3,4.3-3.5c0.8-1.6,1.5-3.1,1.7-4.4c0-0.3-0.1-0.3-0.4-0.4c-0.5-0.2-2.9,2-4.9,0
		c-0.3-0.3-0.9,0.5-0.9,0.5c-1.7,2.4-2.5,5.9-3,8.3l1.6-0.1c1.4-1.9,2.2-3.7,3.2-5.6L422.4,613.7L422.4,613.7z"/>
	<path class="st9" d="M425.7,609c-0.4,1.2-1,2.2-1.6,3.2 M426.6,608.3c-0.4,1.1-0.8,2.1-1.3,3 M422.1,609.1c-0.9,1.9-1.2,3.3-1.7,5
		 M421.7,608.5c-1.1,2.2-1.5,3.7-2.2,5.7"/>
	<path class="st8" d="M357.6,608.1c0.9,0.8,1.8,1.6,2.7,2.4c-1.6-2.7-3.2-6.1-2.1-6.6c0.9-0.4,3.4,1.2,5.1,0.1
		c0.4-0.3,1.4,0.3,1.4,0.3c2.6,3.2,3,6.6,3.7,9.4l1.5,0.1c-0.6-2.5-1.7-7.8-3.7-10.3c-2-2.4-2.4-2.3-4.7-2.5c-2.3-0.2-6.3-0.9-5.8,2
		C356,604.7,356.7,606.4,357.6,608.1L357.6,608.1z"/>
	<path class="st8" d="M361.2,611.3c1,0.8,2,1.6,3,2.4l0.6,0.1l-1.8-5.7c1,2,1.8,3.8,3.2,5.6l1.6,0.1c-0.5-2.4-1.3-5.9-3-8.3
		c0,0-0.7-0.7-0.9-0.5c-2,1.9-4.4-0.2-4.9,0c-0.3,0.1-0.5,0.1-0.4,0.4C358.9,607,360,609.2,361.2,611.3L361.2,611.3z"/>
	<path class="st9" d="M361.4,608.6c0.6,1.7,1.5,3.2,2.4,4.7 M360.5,607.9c0.6,1.7,1.4,3.1,2.2,4.5 M365,608.6c0.9,1.9,1.2,3.3,1.7,5
		 M365.4,608c1.1,2.2,1.5,3.7,2.2,5.7"/>
</g>
</svg>
